<svg width="1180" height="251" viewBox="0 0 1180 251" fill="none" xmlns="http://www.w3.org/2000/svg">
<g clip-path="url(#clip0)">
<path fill-rule="evenodd" clip-rule="evenodd" d="M909.396 281.172C906.847 278.288 516.97 287.9 516.97 287.9L-45.7212 261.698C-155.704 289.524 185.102 39.9662 231.818 39.9662C278.537 39.9662 311.487 84.9977 371.893 84.9977C432.299 84.9977 430.681 29.6487 485.691 29.6487C540.702 29.6487 559.099 100.529 610.912 96.684C662.726 92.8391 711.025 11.9346 757.776 11.9346C804.528 11.9346 846.749 96.684 883.154 96.684C919.561 96.684 1027.04 68.7389 1074.01 68.7389C1120.99 68.7389 1166.79 96.684 1211.42 96.684V293.668L909.396 281.172Z" fill="#FFAB91"/>
<path fill-rule="evenodd" clip-rule="evenodd" d="M881.736 299.077C879.188 296.193 489.311 305.805 489.311 305.805L-73.3802 279.603C-183.364 307.429 62.0602 0.196777 108.777 0.196777C155.496 0.196777 310.404 172.579 358.82 172.579C407.236 172.579 487.128 57.8713 577.165 57.8713C667.202 57.8713 681.276 140.473 733.09 136.628C784.904 132.783 815.449 21.2796 862.2 21.2796C908.952 21.2796 917.172 117.403 953.579 117.403C989.985 117.403 999.38 86.6433 1046.35 86.6433C1093.33 86.6433 1128.56 150.085 1173.19 150.085L1183.76 311.573L881.736 299.077Z" fill="#FF8965"/>
<path fill-rule="evenodd" clip-rule="evenodd" d="M315.275 166.682C360.407 149.89 491.697 102.877 690 156.607C888.304 210.338 937.539 238.322 1057.89 238.322C1178.24 238.322 1171.4 309.963 1171.4 309.963L327.584 313.321L315.275 166.682Z" fill="#FF6F43"/>
<path fill-rule="evenodd" clip-rule="evenodd" d="M1205 479H49H-21V307V221C-21 221 -25.7268 162.857 -21 162.844C25.0046 162.721 189.212 168.406 190.041 155.555C190.083 152.997 189.866 150.372 189.649 147.735C189.175 141.987 188.697 136.181 190.875 130.892C193.663 131.161 196.512 131.294 199.347 131.384C199.517 128.751 199.524 126.114 199.53 123.478C199.541 119.25 199.551 115.026 200.239 110.832C200.86 106.899 200.533 102.936 198.353 99.526C200.423 95.4818 199.043 91.2875 197.715 87.2492L197.715 87.248C197.434 86.3955 197.156 85.5492 196.913 84.7135C195.662 79.9573 192.13 76.7312 188.613 73.5181C187.039 72.0805 185.468 70.6455 184.106 69.0771C185.722 65.2466 189.463 64.3117 193.292 64.9492C195.814 67.6435 197.849 70.7404 199.883 73.8366C202.756 78.2094 205.629 82.5808 209.87 85.8133C214.186 88.8348 216.028 93.6025 217.848 98.3151C218.424 99.8058 218.998 101.291 219.648 102.714C220.174 103.941 220.193 105.329 220.212 106.708C220.241 108.744 220.268 110.761 221.932 112.212L222.27 113.351C223.289 116.782 224.308 120.214 225.006 123.724C222.034 122.895 220.389 120.418 219.199 117.761C218.117 115.38 216.801 113.122 215.484 110.863C214.855 109.784 214.226 108.705 213.622 107.612C213.159 107.673 212.482 107.763 211.784 107.856L211.771 107.858L211.769 107.858L211.766 107.859C210.928 107.971 210.061 108.087 209.498 108.159C209.065 115.581 209.112 123.103 209.498 130.551C213.507 131.478 217.622 131.358 221.739 131.238C224.219 131.165 226.7 131.093 229.159 131.249C229.159 134.945 229.176 138.654 229.247 142.363C230.7 142.379 232.156 142.37 233.614 142.361C236.431 142.344 239.254 142.327 242.069 142.482C242.185 143.204 242.375 144.325 242.557 145.399L242.559 145.412C242.702 146.254 242.84 147.066 242.932 147.632C243.856 146.919 244.769 146.194 245.683 145.468C248.482 143.245 251.28 141.023 254.355 139.188C256.325 140.962 258.869 141.028 261.347 141.092C261.856 141.105 262.362 141.118 262.86 141.146C263.574 143.772 264.788 146.206 266.436 148.39C269.29 144.28 273.672 144.708 277.979 145.128C278.868 145.215 279.754 145.301 280.623 145.347C280.579 149.931 283.919 153.093 287.226 155.762C287.273 156.439 287.352 157.479 287.429 158.5L287.43 158.51C287.5 159.435 287.569 160.344 287.613 160.956C287.899 159.277 287.997 157.574 288.096 155.87C288.13 155.285 288.164 154.701 288.205 154.117C291.099 153.968 293.995 153.835 296.917 153.702L297.411 154.09C300.348 156.396 303.297 158.712 306.414 160.763C306.391 159.264 306.415 157.756 306.44 156.247C306.511 151.931 306.582 147.601 305.539 143.402C305.721 143.046 305.913 142.69 306.105 142.334C307.092 140.505 308.096 138.644 307.825 136.473C307.841 128.825 307.831 121.177 307.822 113.529C307.806 101.145 307.791 88.7613 307.883 76.3754C307.417 76.0245 306.953 75.6579 306.486 75.289C304.11 73.4134 301.66 71.4784 298.55 71.2564C297.188 67.4255 297.606 63.3259 298.019 59.265C298.187 57.6156 298.354 55.9721 298.402 54.356C302.512 55.6606 306.89 56.1961 311.162 55.2748C310.825 51.6642 310.986 48.01 311.146 44.3583C311.402 38.5249 311.658 32.6982 309.886 27.0674C314.785 24.0974 319.858 21.2802 325.602 20.3009C326.388 18.2952 327.132 16.2792 327.857 14.2632C329.125 16.2052 330.362 18.1758 331.602 20.1493L331.607 20.1573L331.715 20.3287C337.71 21.5902 343.112 24.4858 348.306 27.6331C347.968 27.9473 347.444 28.43 346.933 28.9023L346.489 29.3114C346.203 29.5758 345.94 29.8184 345.741 30.0032C345.785 33.1031 345.735 36.2071 345.684 39.3118C345.603 44.339 345.521 49.3681 345.842 54.3852C348.974 57.1907 355.221 56.4187 358.889 54.3256C359.476 57.7743 359.542 61.2791 359.607 64.7833C359.639 66.4933 359.67 68.2031 359.763 69.9062C358.025 70.4692 356.29 70.9756 354.554 71.4489C352.891 73.1105 351.199 74.7594 349.373 76.2425V136.278C349.192 138.31 349.908 140.176 350.621 142.034C350.71 142.268 350.8 142.502 350.888 142.736C350.927 148.463 350.896 154.195 350.865 159.928V159.939C350.813 169.692 350.761 179.449 351.051 189.196C352.512 188.3 353.857 187.239 355.201 186.18C356.86 184.873 358.516 183.567 360.384 182.575C360.694 182.76 361.199 183.075 361.641 183.351C361.877 183.498 362.095 183.635 362.255 183.733C364.334 183.777 366.425 183.794 368.533 183.808C368.561 186.153 368.712 188.5 368.976 190.841C369.919 189.071 370.085 187.093 370.25 185.144L370.25 185.141L370.25 185.135C370.28 184.781 370.31 184.428 370.344 184.077C372.243 182.813 374.141 181.568 376.085 180.364C376.085 178.421 376.101 176.476 376.129 174.548C378.03 174.89 379.898 175.32 381.771 175.871C382.582 174.973 383.42 174.089 384.258 173.207L384.26 173.206L384.365 173.094C386.442 174.607 388.461 176.226 390.392 177.96C391.518 177.113 392.662 176.269 393.82 175.423C393.83 175.212 393.842 174.964 393.856 174.692L393.863 174.538L393.865 174.515C393.926 173.274 394.007 171.621 394.041 170.69C397.293 170.853 400.554 170.632 403.449 168.983C406.863 172.278 410.705 175.082 414.788 177.516C414.845 177.115 414.849 176.602 414.853 176.048C414.869 174.036 414.889 171.498 417.473 171.95C418.547 171.963 419.637 171.929 420.731 171.894C423.39 171.809 426.075 171.724 428.618 172.324C438.503 182.593 448.533 192.634 458.685 202.623C458.677 202.765 458.673 202.907 458.669 203.048L458.669 203.049L458.669 203.052C458.666 203.171 458.663 203.289 458.657 203.407L459.229 203.4C461.597 203.367 463.965 203.334 466.334 203.332L466.36 202.536C466.622 194.682 466.885 186.771 465.67 178.974C464.896 173.621 465.01 168.234 465.124 162.844C465.19 159.697 465.257 156.549 465.147 153.406C465.426 153.183 465.826 152.86 466.241 152.527L466.244 152.524C466.77 152.1 467.319 151.658 467.674 151.376L467.674 151.364C467.603 148.487 467.532 145.612 467.266 142.766C466.744 145.573 466.32 148.395 466.021 151.233C464.98 149.101 463.919 146.999 462.847 144.897L462.829 145.118C462.427 150.032 462.008 155.144 458.685 159.079C458.406 157.711 458.169 156.335 457.932 154.96L457.931 154.958C457.53 152.631 457.129 150.304 456.527 148.015C454.91 150.355 454.318 153.113 453.732 155.846L453.732 155.848C453.541 156.74 453.35 157.629 453.124 158.501C451.236 154.917 451.093 150.922 451.853 147.016C450.472 148.748 449.006 150.453 447.564 152.13L447.523 152.178C446.981 148.007 448.623 144.181 450.234 140.426C450.6 139.571 450.966 138.72 451.303 137.87C450.711 138.116 449.818 138.483 448.926 138.85C448.033 139.217 447.14 139.584 446.548 139.83C447.213 137.529 447.89 135.23 448.58 132.933L449.528 132.412C452.191 130.949 454.849 129.488 457.485 127.95C452.743 127.345 447.973 127.075 443.216 126.849C445.265 125.663 447.463 124.733 449.764 124.11C450.854 122.63 451.967 121.163 453.155 119.737C450.656 118.254 448.14 116.773 445.661 115.322C450.74 114.402 455.525 116.21 460.025 118.395C457.851 115.096 455.653 111.749 454.478 107.94C459.319 109.082 462.623 112.711 464.992 116.887C464.175 113.415 463.977 109.844 465.529 106.543C466.04 107.382 466.517 108.242 466.996 109.106C467.467 109.956 467.941 110.81 468.451 111.652C468.665 111.15 468.967 110.446 469.286 109.7L469.289 109.692C469.768 108.573 470.287 107.362 470.609 106.601C470.723 108.404 470.862 110.213 471.005 112.005C473.403 111.736 475.744 111.483 478.188 111.243C477.834 111.476 477.391 111.769 476.902 112.09L476.901 112.091C475.443 113.051 473.586 114.274 472.529 114.982L472.64 115.34L472.641 115.341C472.956 116.352 473.274 117.373 473.617 118.383C477.014 115.137 480.757 112.046 485.37 110.706C482.322 114.15 478.668 116.958 475.042 119.737C475.758 119.996 477.019 120.459 477.98 120.812L478.739 121.091C482.351 118.593 486.585 117.226 490.762 119.329C489.943 121.147 489.138 122.967 488.363 124.818C484.933 123.337 481.223 122.787 477.524 123.279C480.172 126.264 483.766 127.885 487.343 129.497C488.666 130.093 489.987 130.688 491.256 131.351C492.611 132.735 493.977 134.073 495.391 135.427C494.218 136.726 493.062 138.026 491.918 139.338C493.26 142.303 494.475 145.335 495.686 148.369C494.035 150.19 492.385 151.981 490.691 153.744C489.464 153.222 488.259 152.707 487.066 152.196L486.695 152.037C486.555 153.038 486.3 155.042 486.174 156.061C485.886 155.912 485.456 155.697 485.026 155.481L485.024 155.481C484.594 155.265 484.163 155.049 483.873 154.899C483.623 155.733 483.187 157.143 482.832 158.297L482.83 158.302L482.822 158.329L482.821 158.331L482.816 158.346C482.682 158.781 482.56 159.177 482.465 159.488C481.469 155.992 480.727 152.414 479.987 148.847C479.909 148.471 479.831 148.094 479.752 147.718C479.503 149.793 479.278 151.876 479.054 153.961L479.053 153.964C478.986 154.587 478.919 155.21 478.851 155.833C478.619 154.935 478.394 154.035 478.168 153.135L478.168 153.134L478.168 153.133C477.339 149.821 476.51 146.509 475.323 143.304C474.479 147.184 474.406 151.15 474.714 155.098C472.445 161.118 472.75 167.543 473.05 173.867C473.108 175.091 473.166 176.311 473.205 177.523C473.281 178.656 473.349 179.795 473.416 180.936C473.867 188.603 474.326 196.385 477.763 203.388C481.111 203.359 484.467 203.29 487.825 203.188C487.868 197.814 487.686 192.411 486.754 187.117C486.928 186.799 487.104 186.471 487.284 186.138C489.483 182.058 492.139 177.128 497.422 177.339C501.256 176.594 503.89 179.516 506.182 182.058L506.342 182.236C510.263 173.399 509.35 163.578 508.467 154.089C508.295 152.241 508.125 150.406 507.991 148.594C513.206 147.377 518.55 147.029 523.884 146.68L524.602 146.633C524.685 141.38 525.219 136.156 525.751 130.942L525.758 130.872C526.238 124.373 526.009 117.85 525.779 111.329V111.328C525.476 102.713 525.173 94.1004 526.506 85.5474C527.158 81.8043 526.72 78.0243 525.888 74.3694C524.78 69.6462 524.752 64.8269 524.724 60.0087C524.694 54.8248 524.665 49.6421 523.289 44.5815C522.146 40.0684 526.584 39.1773 530.051 38.4811C530.563 38.3783 531.054 38.2798 531.502 38.1745C531.813 31.0765 531.334 23.9785 530.274 16.9498C530.902 17.0415 531.933 17.1837 532.855 17.3108C533.385 17.3839 533.879 17.4521 534.24 17.5028C534.926 16.2928 535.603 15.0812 536.283 13.8659L536.697 13.1255C536.779 12.9805 536.86 12.8355 536.941 12.6904C537.009 12.5685 537.078 12.4466 537.146 12.3246C537.738 11.8775 538.328 11.4281 538.917 10.9785L538.921 10.9756C539.766 10.3317 540.611 9.6875 541.465 9.04938C541.535 7.04028 541.6 5.03088 541.665 3.02136L541.665 3.01752C541.719 1.34506 541.773 -0.327469 541.831 -2C541.909 -1.16214 541.971 -0.321854 542.034 0.518738C542.223 3.03557 542.411 5.55502 543.004 8.0195C543.901 10.0715 545.178 11.9034 546.457 13.7379C547.228 14.8437 548 15.9504 548.69 17.1069C549.202 17.0526 549.958 16.9736 550.724 16.8934L550.903 16.8747C551.686 16.7929 552.461 16.7118 552.982 16.6563L552.928 17.1311C552.113 24.2405 551.294 31.3781 551.583 38.5694L551.597 38.5736C555.575 39.7747 560.01 41.1138 560.191 46.062C559.804 46.4047 559.198 46.9306 558.614 47.4379C558.136 47.8522 557.674 48.2541 557.356 48.5335C557.373 50.4883 557.429 52.4434 557.485 54.3987C557.609 58.7076 557.732 63.0174 557.44 67.3271C557.303 69.826 556.526 72.178 555.75 74.5294C555.005 76.7861 554.26 79.0423 554.081 81.4272C553.701 88.4583 553.793 95.5022 553.886 102.545C554.009 111.981 554.133 121.415 553.122 130.814C552.947 134.346 552.866 137.878 552.785 141.409C552.711 144.68 552.636 147.95 552.487 151.221C552.747 150.763 553.141 150.073 553.535 149.383L553.537 149.381C553.932 148.689 554.328 147.996 554.589 147.537C556.015 148.093 557.44 148.664 558.868 149.236C559.9 149.649 560.934 150.063 561.97 150.472C564.552 149.653 567.163 148.947 569.816 148.34C569.529 150.769 569.121 153.246 568.709 155.747C567.162 165.144 565.561 174.869 570.098 183.561C570.905 182.941 571.686 182.085 572.484 181.211C574.645 178.842 576.929 176.339 580.187 178.031C582.365 179.441 584.202 181.267 586.039 183.093C586.976 184.025 587.913 184.956 588.896 185.833C588.008 192.002 587.541 198.225 587.499 204.448C596.512 205.011 605.548 205.264 614.594 205.293C614.63 203.898 614.679 202.498 614.729 201.096L614.729 201.095C615.024 192.707 615.323 184.223 612.844 176.111C611.098 170.832 611.151 165.374 611.204 159.907C611.243 155.788 611.283 151.664 610.554 147.608C609.763 143.471 609.877 139.282 610.052 135.103C610.13 133.411 610.039 131.71 609.949 130.011C609.78 126.85 609.612 123.695 610.531 120.613C611.549 122.338 611.649 124.538 611.744 126.639C611.831 128.557 611.914 130.392 612.689 131.706C612.757 128.301 613.415 124.889 614.074 121.479C615.176 115.77 616.277 110.066 614.604 104.411C613.548 108.099 613.043 111.911 612.539 115.721C612.426 116.575 612.312 117.43 612.193 118.283C611.606 117.876 611.115 117.241 610.628 116.612C609.884 115.651 609.151 114.703 608.101 114.599C607.75 115.93 607.369 117.252 606.988 118.574C606.408 120.588 605.828 122.603 605.351 124.65C604.716 125.538 604.035 126.394 603.354 127.25C601.701 129.329 600.049 131.406 599.072 133.934C595.654 127.907 595.372 120.924 595.33 114.162C595.076 114.338 594.823 114.512 594.571 114.686L594.568 114.689C593.99 115.087 593.416 115.483 592.848 115.886C592.027 120.148 590.951 124.348 589.878 128.542C589.601 129.624 589.324 130.707 589.051 131.789C584.353 126.184 583.841 118.27 587.655 112.046C586.566 111.61 585.494 111.171 584.451 110.734C584.304 111.15 584.16 111.569 584.015 111.988L584.015 111.989L584.014 111.991C583.177 114.424 582.334 116.874 580.864 119.019C579.371 118.552 577.9 118.042 576.477 117.481C578.483 108.985 582.192 101.056 586.385 93.4352C584.537 94.2967 582.702 95.1928 580.868 96.0887L580.867 96.0891C579.579 96.7181 578.291 97.3473 576.999 97.9641C577.203 96.9692 577.37 95.9604 577.537 94.9499C577.972 92.318 578.41 89.6749 579.51 87.2381C581.032 84.8587 583.522 83.5111 585.976 82.1836C586.796 81.7397 587.612 81.298 588.387 80.8207C589.629 80.5944 590.87 80.3596 592.118 80.1237L592.137 80.1201L592.14 80.1195C592.998 79.9573 593.859 79.7946 594.724 79.6337C594.724 78.6304 594.74 76.6284 594.753 75.6273C591.277 75.1586 587.756 75.1536 584.242 75.1487C579.722 75.1424 575.215 75.1361 570.834 74.1429C573.008 71.9536 575.934 71.2504 578.888 70.5406C581.225 69.979 583.579 69.4133 585.591 68.1043C585.609 67.5221 585.63 66.6177 585.65 65.7508L585.651 65.7286V65.7262L585.651 65.7163L585.651 65.7109L585.651 65.7055C585.667 65.0359 585.682 64.3925 585.695 63.942C586.852 63.942 588.019 63.9452 589.19 63.9483L589.195 63.9484C590.373 63.9515 591.555 63.9547 592.735 63.9547C592.286 63.6485 591.832 63.3456 591.379 63.0423L591.378 63.0416C588.464 61.0951 585.525 59.1312 583.547 56.1657C581.952 55.9159 580.349 55.7008 578.748 55.4859C577.276 55.2884 575.806 55.091 574.346 54.8672C574.511 54.8038 574.676 54.74 574.841 54.6761C577.209 53.7611 579.621 52.8289 582.192 52.7223C585.532 52.5384 588.528 53.7803 591.527 55.0237C594.495 56.2541 597.466 57.486 600.779 57.34C598.323 52.3134 595.233 47.5467 591.027 43.792C591.563 43.3366 592.097 42.8779 592.632 42.4174L592.635 42.4148L592.639 42.4114L592.639 42.4107C593.327 41.8187 594.018 41.2238 594.724 40.6295C601.385 42.426 604.81 48.1443 608.109 53.6524C608.646 54.5497 609.18 55.4416 609.724 56.3098C610.33 51.8232 608.791 47.5961 607.283 43.4507L607.282 43.449C607.063 42.8468 606.845 42.2463 606.634 41.647C607.646 42.4622 608.646 43.2888 609.648 44.1172L609.648 44.1179L609.649 44.1186C610.377 44.7208 611.107 45.3241 611.843 45.9243C611.532 42.9163 611.234 39.9271 611.104 36.9204C613.479 39.9676 614.847 43.6057 615.948 47.2768C617.063 44.7674 618.222 42.2693 619.473 39.8131C619.405 42.1391 619.321 44.469 619.224 46.7808L621.721 46.1886C621.346 47.449 620.635 49.8679 620.201 51.3465L620.082 51.7504C622.327 48.8425 624.501 45.8647 626.643 42.8884C626.209 45.6839 625.755 48.4629 625.146 51.2292C625.284 51.399 625.516 51.7211 625.668 51.9316L625.729 52.016C625.531 54.4179 625.389 56.8301 625.305 59.2446C626.476 58.2102 627.644 57.0934 628.828 55.9614C634.364 50.6692 640.248 45.0446 648.434 45.9496C645.993 48.1891 643.215 49.9824 640.444 51.7713C636.197 54.513 631.966 57.2445 628.988 61.5567C631.188 62.2766 633.42 62.9967 635.649 63.7143C642.466 59.1144 654.333 56.2645 659.316 64.8025C657.577 64.7103 655.837 64.6021 654.105 64.4944L654.104 64.4943L654.101 64.4941C652.937 64.4217 651.776 64.3495 650.621 64.2825L651.124 65.2156C652.257 67.3149 653.393 69.4205 654.502 71.5474C653.37 71.1148 652.251 70.632 651.131 70.1491C648.412 68.9764 645.691 67.8026 642.777 67.3436C640.535 67.3632 638.343 67.8852 636.176 68.4013C635.547 68.5511 634.921 68.7004 634.295 68.8368C636.761 71.0805 639.514 73.0991 642.777 74.0036C646.951 75.0859 650.402 77.5173 653.862 79.9547C655.723 81.2655 657.586 82.5779 659.566 83.6833C659.767 84.234 660.175 85.3196 660.385 85.8713C662.559 87.3091 664.409 89.1718 665.916 91.3155C662.686 93.0807 660.486 95.8901 659.54 99.4145C662.4 103.863 664.561 108.704 666.172 113.742C665.145 115.236 664.127 116.744 663.139 118.254L662.172 117.913C660.61 117.362 659.036 116.807 657.495 116.281C657.67 116.862 657.846 117.443 658.021 118.024C658.706 120.289 659.39 122.554 660.019 124.847C658.529 123.774 657.105 122.656 655.679 121.536L655.221 121.177C654.687 121.288 653.624 121.517 653.105 121.642C652.766 121.229 652.205 120.536 651.726 119.945L651.725 119.945C651.505 119.672 651.301 119.421 651.145 119.229C649.986 123.56 648.858 127.922 647.799 132.281C647.194 130.656 646.617 129.022 646.041 127.389C645.528 125.934 645.016 124.482 644.484 123.038C644.474 124.118 644.474 125.199 644.475 126.28C644.476 128.606 644.477 130.934 644.371 133.257C640.734 129.743 639.889 125.053 639.041 120.338C638.404 116.801 637.765 113.25 635.941 110.171C635.401 114.074 635.87 117.978 636.338 121.87C636.491 123.141 636.643 124.41 636.761 125.678C636.142 123.972 635.533 122.265 634.943 120.553C631.866 117.232 631.194 112.879 630.531 108.588C630.355 107.448 630.18 106.312 629.96 105.201C629.743 105.522 629.437 105.967 629.115 106.437C628.626 107.15 628.097 107.921 627.773 108.404C626.784 113.428 626.956 118.53 627.127 123.628C627.22 126.378 627.312 129.126 627.223 131.86C626.548 129.584 625.963 127.284 625.378 124.984C624.657 122.147 623.936 119.31 623.046 116.521C622.512 124.11 623.046 131.706 624.106 139.224C624.845 144.351 624.825 149.516 624.805 154.685C624.796 157.101 624.786 159.518 624.854 161.932C625.531 176.492 627.291 190.983 629.257 205.435C630.261 205.425 631.282 205.46 632.305 205.495C632.586 205.505 632.867 205.515 633.148 205.523C633.375 205.515 633.6 205.493 633.825 205.471C633.941 205.459 634.056 205.448 634.172 205.438L634.191 205.882H679.066L678.911 203.239L679.34 203.24C684.487 203.246 689.635 203.252 694.773 203.347C694.575 199.297 694.377 195.26 694.164 191.224C695.182 190.929 696.324 190.747 697.489 190.563C701.007 190.005 704.719 189.416 705.778 185.567C710 172.822 712.621 159.559 713.343 146.153C712.258 144.488 711.169 142.823 710.065 141.159C710.566 141.021 711.347 140.801 712.085 140.592C712.64 140.436 713.171 140.286 713.541 140.183C713.539 139.802 713.531 139.417 713.524 139.031C713.476 136.601 713.426 134.108 714.824 132.012C716.943 132.887 718.31 134.7 719.656 136.483C720.048 137.003 720.439 137.521 720.847 138.013C721.64 136.289 722.418 134.568 723.192 132.832C722.818 132.229 722.395 131.63 721.968 131.024C720.464 128.893 718.903 126.682 719.214 123.956C720.024 116.739 724.871 111.011 729.415 105.64C729.776 105.214 730.134 104.791 730.488 104.369C731.672 102.772 733.542 102.522 735.421 102.27C736.926 102.069 738.438 101.867 739.605 100.97C743.84 96.0016 745.887 89.5667 746.266 83.1202C745.211 83.0067 744.15 82.8333 743.085 82.6594C740.448 82.2284 737.79 81.7941 735.147 82.2585C732.902 85.7019 733.65 89.8651 736.968 92.2621C736.895 92.6824 736.791 93.2689 736.681 93.8928L736.68 93.897L736.678 93.9076C736.504 94.8897 736.314 95.9619 736.203 96.6229C730.728 91.9939 731.153 84.5301 732.225 78.1254C733.923 78.0273 735.623 77.932 737.325 77.8367C739.045 77.7403 740.767 77.6439 742.485 77.5445C743.112 71.5093 744.289 65.5654 745.468 59.6178L745.469 59.6119C745.698 58.4542 745.928 57.2964 746.153 56.1378C742.187 55.8848 738.222 55.671 734.256 55.5191C734.353 54.0512 734.441 52.583 734.525 51.1164C738.773 48.7868 742.641 45.7963 745.839 42.1556C746.631 42.6975 747.443 43.2158 748.254 43.734C750.188 44.9695 752.121 46.2044 753.799 47.7566C755.329 49.521 756.062 51.7235 756.792 53.918C757.16 55.0223 757.527 56.1246 757.994 57.168C759.619 56.4539 761.188 55.6425 762.754 54.8322L762.757 54.8307C763.636 54.3761 764.514 53.922 765.401 53.4855C759.459 51.2722 754.194 47.5288 751.081 41.8569C752.896 42.6014 754.642 43.7178 756.393 44.837C760.318 47.3457 764.265 49.8686 769.055 48.2487L769.024 48.1848L769.022 48.1795C768.288 46.651 767.547 45.1086 766.8 43.5804C767.685 42.4365 768.563 41.3065 769.45 40.1649C771.2 40.7435 772.949 41.337 774.689 41.9292C774.718 42.2659 774.748 42.6043 774.778 42.9439C775.237 48.1256 775.721 53.5944 772.091 57.8451C772.982 60.9506 774.012 64.0143 775.24 67.0032C783.142 67.284 790.198 71.3083 796.661 75.4984C799.235 78.9839 799.96 83.3461 800.671 87.6182C800.918 89.1067 801.164 90.5847 801.486 92.0104C797.278 89.9996 795.619 85.9578 793.956 81.9052C793.132 79.8976 792.307 77.8871 791.17 76.1198L791.153 76.3281C790.689 81.9136 790.15 88.4147 795.359 92.0519C795.573 96.438 795.586 100.828 795.56 105.201C796.44 105.368 797.342 105.478 798.246 105.589C800.5 105.865 802.766 106.142 804.732 107.291C805.67 108.816 805.722 110.618 805.773 112.405C805.797 113.23 805.82 114.051 805.931 114.839C808.092 114.7 810.249 114.574 812.378 114.46C812.368 115.519 812.352 116.579 812.337 117.64L812.337 117.651C812.272 122.08 812.208 126.515 812.537 130.94C813.746 141.747 813.634 152.607 813.523 163.466C813.471 168.432 813.42 173.397 813.496 178.356C818.222 178.764 822.92 179.398 827.579 180.315C827.672 182.345 827.766 184.373 827.86 186.401C827.95 188.352 828.041 190.302 828.13 192.252C830.589 192.589 833.064 192.8 835.539 193.01C838.362 193.25 841.187 193.491 843.992 193.919C844.208 194.697 844.323 195.49 844.437 196.284C844.468 196.501 844.5 196.718 844.533 196.934L845.552 196.932C847.645 196.927 849.738 196.923 851.829 196.89C855.442 197.085 857.884 194.222 860.055 191.677C860.31 191.379 860.561 191.084 860.81 190.8C867.555 181.715 873.403 171.588 875.059 160.213C874.136 159.733 873.217 159.248 872.299 158.764L872.294 158.761L872.289 158.758L872.288 158.758C871.673 158.433 871.059 158.109 870.445 157.787C870.498 155.657 870.475 153.516 870.452 151.373V151.372C870.391 145.574 870.33 139.761 871.754 134.109C872.06 132.852 872.961 131.944 873.86 131.04C874.322 130.574 874.784 130.11 875.162 129.599C875.34 121.563 875.309 113.526 875.278 105.491C875.26 100.602 875.241 95.7126 875.269 90.8244C875.281 87.1404 875.646 83.4791 876.011 79.8196C876.437 75.5499 876.863 71.2819 876.727 66.9844C876.4 52.4502 876.4 37.9023 877.44 23.4012C881.224 24.8425 884.755 26.8546 888.076 29.2059C888.087 31.0342 888.097 32.8625 888.107 34.6908V34.6918C888.209 53.4121 888.312 72.1335 889.103 90.8522C889.185 93.9184 889.14 96.9916 889.095 100.066C889.011 105.771 888.928 111.479 889.654 117.149C890.537 111.452 890.392 105.681 890.247 99.9192C890.184 97.415 890.122 94.9127 890.143 92.4189C889.822 80.9726 889.71 69.5211 889.598 58.0694V58.0682C889.47 45.0257 889.342 31.9825 888.906 18.9467C889.992 18.6791 891.08 18.4372 892.168 18.1952L892.17 18.1948C893.257 17.9529 894.344 17.711 895.43 17.4435C897.076 28.8072 896.852 40.2947 896.628 51.7879C896.419 62.4637 896.21 73.1446 897.501 83.7354C897.981 90.6704 897.845 97.6168 897.709 104.563C897.583 110.965 897.458 117.368 897.815 123.761C897.558 126.503 899.636 128.084 901.635 129.605C902.307 130.117 902.971 130.622 903.533 131.161C903.786 112.296 903.993 93.3999 903.459 74.5327C902.417 67.1192 902.594 59.6593 902.77 52.2003C902.952 44.4826 903.135 36.7653 901.968 29.1023C900.912 21.7043 901.252 14.1974 902.143 6.7988C903.8 7.0601 905.465 7.34703 907.136 7.63518C907.735 7.73856 908.336 7.84209 908.937 7.94466C909.031 12.8867 909.169 17.8289 909.307 22.7715L909.307 22.7733C909.494 29.474 909.681 36.1754 909.757 42.8781C910.577 41.8343 911.409 40.7914 912.258 39.7638C912.224 38.8817 912.183 37.9981 912.141 37.1138C911.962 33.3243 911.782 29.5204 912.229 25.7538C912.507 25.6343 912.943 25.4589 913.357 25.2917C913.675 25.1634 913.982 25.0399 914.196 24.9504C916.83 27.9114 918.602 31.6952 918.841 35.6852C918.962 37.7062 919.087 39.7271 919.211 41.7482L919.214 41.7849C919.914 53.1685 920.616 64.5548 920.717 75.9639C921.053 81.9981 921.587 88.0249 922.122 94.0521C923.129 105.411 924.136 116.772 923.814 128.184C923.45 131.021 925.169 132.97 926.912 134.947C928.298 136.518 929.699 138.106 930.08 140.171C931.127 144.994 931.425 150.012 930.874 154.942C930.787 156.647 929.675 157.918 928.571 159.178C927.371 160.549 926.182 161.907 926.332 163.799C928.117 175.595 935.633 185.678 944.391 193.375C946.101 194.91 948.084 195.621 950.183 195.937V197L1205 195V479ZM754.677 85.1803V82.3016C751.258 85.6824 749.675 90.2 748.098 94.7018C747.345 96.8509 746.594 98.9965 745.644 101.013C751.758 100.669 757.76 101.566 763.768 102.464C766.664 102.897 769.561 103.33 772.473 103.625C773.013 103.001 773.725 102.413 774.453 101.813C776.428 100.182 778.51 98.4636 777.511 95.7181C776.186 91.656 775.107 87.5229 774.744 83.2291C772.543 83.2291 770.338 83.244 768.133 83.2589C765.929 83.2738 763.724 83.2887 761.523 83.2887C761.208 84.1213 760.606 85.7868 760.308 86.6194C759.603 86.4358 758.548 86.1679 757.492 85.8999C756.437 85.6319 755.382 85.3638 754.677 85.1803ZM786.951 87.9718L786.949 87.969C786.306 87.2 785.665 86.4334 785.047 85.6588C783.521 87.3939 781.985 89.1592 780.527 90.9637C780.997 93.406 781.418 95.8623 781.83 98.3173C780.022 100.122 778.227 101.943 776.478 103.792C777.946 103.946 779.415 104.166 780.884 104.385C784.105 104.867 787.331 105.349 790.577 105.146C793.597 103.961 793.529 99.8259 793.12 97.1303C791.731 93.6902 789.327 90.8139 786.951 87.9718ZM890.085 154.319C887.898 154.525 885.724 154.749 883.55 154.985C884.888 170.279 878.545 185.558 868.462 196.842C873.303 196.903 878.159 196.918 883.012 196.903C886.395 182.875 889.298 168.742 890.085 154.319ZM904.813 161.492C903.352 161.509 900.436 161.522 898.975 161.522C899.465 169.994 898.597 178.404 897.731 186.812C897.381 190.199 897.032 193.585 896.772 196.975C901.46 196.89 906.154 196.798 910.846 196.677C907.376 185.288 905.422 173.389 904.813 161.492ZM913.382 59.2332C913.122 53.4496 912.863 47.6665 912.806 41.8796C912.538 42.3556 912.194 42.8141 911.848 43.2761C910.928 44.503 909.99 45.7543 910.411 47.42C910.444 50.7862 910.631 54.1523 910.818 57.5192C911.144 63.4 911.471 69.2832 910.978 75.1731C911.947 75.3225 912.942 75.3225 913.943 75.3225C913.863 69.9573 913.623 64.5959 913.382 59.2349L913.382 59.2332ZM914.997 105.719C914.66 95.8731 914.323 86.0304 914.27 76.1881C913.992 76.6514 913.644 77.0966 913.295 77.5443C912.355 78.7487 911.4 79.9722 911.733 81.6206C911.855 90.5089 912.154 99.3967 912.453 108.284L912.453 108.286C912.642 113.886 912.83 119.487 912.974 125.087C913.299 125.087 913.786 125.083 914.273 125.078C914.762 125.074 915.251 125.069 915.579 125.069C915.438 118.617 915.217 112.168 914.997 105.719ZM921.776 160.452C921.599 158.611 921.422 156.77 921.164 154.942C918.871 154.955 916.59 154.971 914.315 155.017C913.976 166.642 918.397 177.69 922.675 188.381L922.682 188.398L922.709 188.466L922.729 188.516C923.134 189.527 923.537 190.535 923.934 191.54C925.265 196.312 929.984 196.16 934.168 196.025C935.129 195.994 936.062 195.963 936.919 195.994C931.201 188.43 926.299 180.137 923.396 171.067C922.462 167.599 922.119 164.026 921.776 160.452ZM628.104 233.592H625.991C626.212 233.757 626.433 233.919 626.655 234.082C627.145 234.441 627.634 234.8 628.107 235.184C628.107 234.973 628.106 234.762 628.105 234.551V234.547C628.103 234.229 628.102 233.91 628.104 233.592ZM322.742 170.806V170.805C322.757 166.968 322.773 163.132 322.53 159.311C319.146 160.827 319.41 164.292 319.666 167.66C319.781 169.166 319.894 170.653 319.679 171.938H322.738L322.742 170.806ZM322.722 42.0393C322.752 39.1298 322.767 36.2229 322.78 33.315C322.37 33.4448 321.744 33.6321 321.125 33.8178C320.536 33.9942 319.952 34.1692 319.563 34.2918C319.623 34.9223 319.619 35.6059 319.616 36.2978V36.2999C319.602 38.8339 319.587 41.4796 322.722 42.0393ZM319.674 90.9069C319.457 93.9762 319.233 97.1234 322.472 98.5602C322.692 95.1248 322.742 91.6923 322.792 88.2474C322.798 87.7775 322.805 87.3074 322.813 86.8371C322.141 86.9923 320.885 87.2582 320.063 87.4323L320.062 87.4326L319.726 87.5038C319.841 88.5589 319.758 89.7272 319.674 90.9069ZM322.722 129.409C322.767 125.267 322.738 121.143 322.411 117.02C319.454 118.769 319.54 121.917 319.623 124.966V124.968C319.647 125.85 319.671 126.725 319.621 127.555C320.13 127.858 320.981 128.367 321.723 128.811C322.106 129.04 322.459 129.252 322.722 129.409ZM337.505 169.806V169.804C337.511 166.316 337.517 162.826 337.369 159.339C333.925 160.721 334.216 164.175 334.5 167.546C334.63 169.098 334.759 170.632 334.522 171.938H337.502C337.502 171.227 337.503 170.516 337.505 169.806ZM336.056 117.993L336.055 117.994L336.053 117.994L336.049 117.995C335.478 118.13 334.892 118.268 334.505 118.355C334.743 119.53 334.621 120.945 334.497 122.376C334.227 125.496 333.951 128.687 337.4 129.603C337.532 125.625 337.517 121.65 337.369 117.687C337.038 117.762 336.553 117.876 336.056 117.993ZM337.489 98.5894C337.489 94.7475 337.502 90.9018 337.577 87.0596C337.074 87.1192 336.249 87.2087 335.522 87.2877C335.133 87.3298 334.773 87.3689 334.505 87.3988L334.507 87.7545V87.7583C334.523 90.9349 334.539 94.1258 334.654 97.3L334.908 97.4159L335.319 97.605L335.321 97.6057C336.047 97.9394 336.96 98.3584 337.489 98.5894ZM335.995 33.6199L335.993 33.621C335.445 33.8363 334.899 34.0504 334.534 34.1894C334.522 36.5799 334.522 38.9678 334.534 41.3545H337.502C337.489 38.582 337.489 35.8053 337.502 33.0329C337.126 33.1755 336.562 33.3974 335.999 33.6185L335.995 33.6199ZM519.408 161.561C520.059 166.177 520.156 170.862 519.466 175.475C516.078 171.595 517.869 165.908 519.408 161.561ZM534.309 49.9197C532.952 49.866 531.49 49.8082 530.981 51.3393C529.273 55.7011 530.064 63.265 535.921 63.689C535.466 63.1754 534.95 62.6793 534.428 62.1778C532.699 60.5159 530.91 58.7966 531.094 56.1961C530.754 53.274 532.97 51.1291 535.367 49.9307C535.036 49.9486 534.676 49.9343 534.309 49.9197ZM533.226 25.6854C535.018 27.3927 535.413 33.039 533.365 34.5613C532.351 31.8533 532.166 28.396 533.226 25.6854ZM537.514 27.7865C537.424 26.236 537.335 24.696 537.457 23.2318C534.573 26.2881 535.054 30.6859 535.497 34.7251C535.606 35.7216 535.713 36.6967 535.766 37.624C537.92 34.7781 537.716 31.2558 537.514 27.7865ZM540.872 87.5543C541.025 84.2028 541.177 80.8519 541.338 77.5027C538.771 78.7767 538.816 81.36 538.859 83.8257C538.871 84.5026 538.883 85.171 538.84 85.8007C538.695 95.829 538.405 105.852 538.115 115.874C537.9 123.31 537.684 130.746 537.528 138.181C539.329 121.366 540.101 104.451 540.872 87.5543ZM545.213 24.1242L545.208 24.1223C544.743 23.9265 544.304 23.7415 543.992 23.6114C543.926 24.1418 543.855 24.6727 543.785 25.2041L543.785 25.2052C543.36 28.4203 542.933 31.6533 543.37 34.8727C543.033 36.1585 544.866 37.9629 545.842 36.6648C545.772 35.5689 545.618 34.4771 545.464 33.3851C545.147 31.1329 544.83 28.8798 545.249 26.589C545.43 26.6204 545.706 26.6631 545.975 26.7047C546.206 26.7404 546.431 26.7753 546.587 26.8015C546.998 28.2544 547.322 29.7502 547.575 31.2472C547.977 32.2993 548.199 33.401 548.422 34.5033C548.614 35.4549 548.806 36.4069 549.114 37.328C549.083 34.2575 549.255 31.2012 549.427 28.1429C549.492 26.9999 549.556 25.8566 549.61 24.7122C549.091 24.7482 548.141 24.8335 547.479 24.893L547.125 24.9248C546.653 24.7305 545.905 24.4155 545.213 24.1242ZM557.722 176.829C558.782 171.736 558.879 166.418 557.301 161.421C557.161 162.439 556.956 163.503 556.746 164.59C555.932 168.804 555.054 173.351 557.722 176.829ZM561.903 164.208L561.901 164.16C559.243 166.489 559.794 170.111 560.3 173.444C560.453 174.449 560.602 175.427 560.657 176.336C562.245 172.501 562.071 168.283 561.903 164.208Z" fill="#555555"/>
<path d="M695.757 26.379C685.331 27.428 675.103 34.3919 672.573 44.9459C671.357 44.6551 670.108 44.5018 668.863 44.3489C667.512 44.1831 666.165 44.0177 664.868 43.6779C659.234 39.7272 652.039 37.9745 645.258 39.5548C650.114 43.1035 656.14 44.5221 661.978 45.4153C663.179 45.3498 663.648 46.3773 664.078 47.3203C664.179 47.5431 664.279 47.7612 664.385 47.959C665.681 50.9064 667.505 54.0421 670.752 55.1014C674.241 56.6364 677.896 54.6586 680.889 52.9121C678.388 52.3426 676.042 51.2304 674.397 49.2056C678.252 42.9023 682.593 36.3369 689.4 32.9366C692.232 31.5533 694.247 29.0844 695.757 26.379Z" fill="#555555"/>
<path d="M424.139 49.4966C428.148 29.7641 447.403 16.6057 466.657 14.8401C463.235 22.3849 456.017 26.518 449.104 30.3245C440.214 37.038 433.589 46.3898 427.958 55.8796C428.633 60.1683 432.947 61.6821 436.712 63.0033C437.465 63.2677 438.196 63.5243 438.872 63.794C433.601 67.0511 427.261 69.7643 421.032 67.6676C413.47 65.0798 409.76 57.2894 407.089 50.3457L406.875 50.3091C395.367 48.3471 383.202 46.2733 373.729 38.9513C386.478 36.0774 400.106 39.3083 410.486 47.1161C415.129 47.3072 419.784 47.7313 424.139 49.4966Z" fill="#555555"/>
<path d="M-66 201C-5 111 154.554 180.163 371 201C543 236.761 700.261 236.761 778.214 236.761C886.255 234.523 1006.61 189.881 1188.5 191V384.5H-66V201Z" fill="#FF5622"/>
</g>
<defs>
<clipPath id="clip0">
<rect width="1180" height="251" fill="white"/>
</clipPath>
</defs>
</svg>
