<svg width="1180" height="251" viewBox="0 0 1180 251" fill="none" xmlns="http://www.w3.org/2000/svg">
<g clip-path="url(#clip0)">
<path fill-rule="evenodd" clip-rule="evenodd" d="M909.396 281.172C906.847 278.288 516.97 287.9 516.97 287.9L-45.7212 261.698C-155.704 289.524 185.102 39.9662 231.818 39.9662C278.537 39.9662 311.487 84.9977 371.893 84.9977C432.299 84.9977 430.681 29.6487 485.691 29.6487C540.702 29.6487 559.099 100.529 610.912 96.684C662.726 92.8391 711.025 11.9346 757.776 11.9346C804.528 11.9346 846.749 96.684 883.154 96.684C919.561 96.684 1027.04 68.7389 1074.01 68.7389C1120.99 68.7389 1166.79 96.684 1211.42 96.684V293.668L909.396 281.172Z" fill="#D9D9D9"/>
<path fill-rule="evenodd" clip-rule="evenodd" d="M881.736 299.077C879.188 296.193 489.311 305.805 489.311 305.805L-73.3802 279.603C-183.364 307.429 62.0602 0.196777 108.777 0.196777C155.496 0.196777 310.405 172.579 358.82 172.579C407.236 172.579 487.128 57.8713 577.165 57.8713C667.202 57.8713 681.276 140.473 733.09 136.628C784.904 132.783 815.449 21.2796 862.2 21.2796C908.952 21.2796 917.172 117.403 953.579 117.403C989.985 117.403 999.38 86.6433 1046.35 86.6433C1093.33 86.6433 1128.56 150.085 1173.19 150.085L1183.76 311.573L881.736 299.077Z" fill="#E9E9E9"/>
<path fill-rule="evenodd" clip-rule="evenodd" d="M315.275 166.682C360.407 149.89 491.697 102.877 690 156.607C888.304 210.338 937.539 238.322 1057.89 238.322C1178.24 238.322 1171.4 309.963 1171.4 309.963L327.584 313.321L315.275 166.682Z" fill="#43A046"/>
<path fill-rule="evenodd" clip-rule="evenodd" d="M800 187.5C800 187.5 765.213 192.63 752.904 200.465C740.596 208.301 777.521 209.421 792.565 211.659C807.61 213.898 786 227 786 227L812 226C812 226 836.328 215.017 818.549 209.421C800.77 203.824 774.786 201.585 785.727 199.346C796.668 197.107 811 190.5 811 190.5L800 187.5Z" fill="#E9E9E9"/>
<path d="M560.239 159.307V157.006H548.289V155.786H539.447V157.006H537.415V159.307H538.731V200.743H537.415V202.326H560.24V200.743H558.925V159.307H560.239Z" fill="url(#paint0_linear)"/>
<path d="M499.173 207H527.886V157.657H499.173V207Z" fill="url(#paint1_linear)"/>
<path d="M475.154 200.395H493.169V134.34H475.154V200.395Z" fill="url(#paint2_linear)"/>
<path d="M461.343 188.384H479.358V122.331H461.343V188.384Z" fill="url(#paint3_linear)"/>
<path d="M450.464 176.423V129.838L442.768 126.633V118L420.271 126.879V176.424H419V178.385H451.735V176.424L450.464 176.423Z" fill="url(#paint4_linear)"/>
<path fill-rule="evenodd" clip-rule="evenodd" d="M540.661 165.524H546.115V162.256H540.661V165.524ZM551.14 179.517H556.594V176.248H551.14V179.517ZM543.46 172.938H546.193V169.669H543.46V172.938Z" fill="#E8F5E9"/>
<path fill-rule="evenodd" clip-rule="evenodd" d="M502.598 166.035H505.308V162.698H502.598V166.035ZM506.922 170.84H509.633V167.502H506.922V170.84ZM511.376 170.84H514.087V167.502H511.376V170.84ZM517.121 184.385H519.831V181.049H517.121V184.385ZM506.987 184.385H509.698V181.049H506.987V184.385ZM521.574 184.385H524.285V181.049H521.574V184.385Z" fill="#E8F5E9"/>
<path fill-rule="evenodd" clip-rule="evenodd" d="M463.702 128.804H466.346V125.967H463.702V128.804ZM463.26 136.772H466.346V133.934H463.702L463.26 136.772ZM473.412 166.243H476.056V163.405H473.412V166.243ZM485.327 166.243H487.97V163.405H485.327V166.243ZM488.5 140.265H491.143V137.427H488.5V140.265ZM484.481 140.265H487.124V137.427H484.481V140.265ZM481.52 144.74H484.164V141.902H481.52V144.74ZM481.52 148.997H484.164V146.159H481.52V148.997ZM473.076 144.74H475.72V141.902H473.076V144.74ZM463.702 155.001H466.346V152.162H463.702V155.001Z" fill="#E8F5E9"/>
<path fill-rule="evenodd" clip-rule="evenodd" d="M423.815 135.483H426.62V132.159H423.815V135.483ZM428.424 135.483H431.229V132.159H428.424V135.483ZM444.468 142.552H447.273V139.228H444.468V142.552ZM434.368 148.978H437.173V145.654H434.368V148.978Z" fill="#E8F5E9"/>
<path d="M-49 161.836C-6.60374 157.359 242.7 100.27 405.446 161.837C568.191 223.403 717.261 226.761 795.214 226.761C903.255 224.522 1023.61 168.553 1205.5 169.672V374.5H-49V161.836Z" fill="#4CAF50"/>
<path fill-rule="evenodd" clip-rule="evenodd" d="M62 162.705C62 163.832 61.5468 164.912 60.7402 165.708C59.9336 166.504 58.8395 166.952 57.6988 166.952C56.558 166.952 55.464 166.504 54.6574 165.708C53.8507 164.912 53.3976 163.832 53.3976 162.705C53.3976 160.36 55.3231 150 57.6988 150C60.0744 150 62 160.36 62 162.705" fill="#66BB69"/>
<path fill-rule="evenodd" clip-rule="evenodd" d="M57.1928 169.229H57.9518V166.699H57.1928V169.229Z" fill="#2E7D31"/>
<path fill-rule="evenodd" clip-rule="evenodd" d="M41.0009 170.95C41.0729 171.613 45.6411 171.694 51.2041 171.134C56.7667 170.573 58.0214 169.904 57.9489 169.241C57.8764 168.579 56.5033 168.174 50.9413 168.735C45.3782 169.296 40.9278 170.287 41.0009 170.95" fill="#43A046" fill-opacity="0.5"/>
<path fill-rule="evenodd" clip-rule="evenodd" d="M149 208.621C149 210.981 148.05 213.244 146.36 214.912C144.67 216.581 142.378 217.518 139.988 217.518C137.598 217.518 135.306 216.581 133.615 214.912C131.925 213.244 130.976 210.981 130.976 208.621C130.976 203.707 135.01 182 139.988 182C144.965 182 149 203.707 149 208.621" fill="#66BB69"/>
<path fill-rule="evenodd" clip-rule="evenodd" d="M138.928 222.289H140.518V216.988H138.928V222.289Z" fill="#2E7D31"/>
<path fill-rule="evenodd" clip-rule="evenodd" d="M105.002 225.895C105.153 227.284 114.724 227.455 126.38 226.28C138.035 225.105 140.664 223.703 140.512 222.315C140.36 220.927 137.483 220.079 125.829 221.255C114.173 222.43 104.849 224.507 105.002 225.895" fill="#43A046" fill-opacity="0.5"/>
<path fill-rule="evenodd" clip-rule="evenodd" d="M100 197.336C100 198.784 99.4174 200.172 98.3803 201.196C97.3432 202.22 95.9365 202.795 94.4698 202.795C93.0032 202.795 91.5966 202.22 90.5595 201.196C89.5224 200.172 88.9398 198.784 88.9398 197.336C88.9398 194.32 91.4154 181 94.4698 181C97.5243 181 100 194.32 100 197.336" fill="#66BB69"/>
<path fill-rule="evenodd" clip-rule="evenodd" d="M93.8193 205.723H94.7952V202.47H93.8193V205.723Z" fill="#2E7D31"/>
<path fill-rule="evenodd" clip-rule="evenodd" d="M73.0011 207.936C73.0937 208.788 78.9671 208.893 86.1196 208.172C93.2715 207.451 94.8847 206.591 94.7914 205.739C94.6982 204.887 92.9328 204.367 85.7816 205.088C78.6291 205.809 72.9072 207.084 73.0011 207.936" fill="#43A046" fill-opacity="0.5"/>
<path fill-rule="evenodd" clip-rule="evenodd" d="M89 192.336C89 193.784 88.4174 195.172 87.3803 196.196C86.3432 197.22 84.9365 197.795 83.4698 197.795C82.0032 197.795 80.5966 197.22 79.5595 196.196C78.5224 195.172 77.9398 193.784 77.9398 192.336C77.9398 189.32 80.4154 176 83.4698 176C86.5243 176 89 189.32 89 192.336" fill="#66BB69"/>
<path fill-rule="evenodd" clip-rule="evenodd" d="M82.8193 200.723H83.7952V197.47H82.8193V200.723Z" fill="#2E7D31"/>
<path fill-rule="evenodd" clip-rule="evenodd" d="M62.0011 202.936C62.0937 203.788 67.9671 203.893 75.1196 203.172C82.2715 202.451 83.8847 201.591 83.7914 200.739C83.6982 199.887 81.9328 199.367 74.7816 200.088C67.6291 200.809 61.9072 202.084 62.0011 202.936" fill="#43A046" fill-opacity="0.5"/>
<path fill-rule="evenodd" clip-rule="evenodd" d="M1101.5 191C1107.5 190.5 1114 189 1120.5 184L1108 180.5C1099.5 181.5 1095.45 184 1095.5 186.5C1095.56 189.5 1096.26 191.436 1101.5 191Z" fill="#43A046" fill-opacity="0.5"/>
<path d="M1120.84 164.856L1136 156H1123.05L1108 164.856V184H1120.84V164.856Z" fill="#43A046"/>
<path d="M1151 184H1120.5V164.856L1135.83 156L1151 164.856V184Z" fill="url(#paint5_linear)"/>
<path fill-rule="evenodd" clip-rule="evenodd" d="M1138.1 172.709H1134.45V169.761C1134.45 169.294 1134.64 168.846 1134.98 168.516C1135.32 168.186 1135.79 168 1136.27 168C1136.76 168 1137.22 168.186 1137.57 168.516C1137.91 168.846 1138.1 169.294 1138.1 169.761V172.709ZM1145.27 172.709H1141.51V169.814C1141.51 169.333 1141.7 168.871 1142.06 168.531C1142.41 168.191 1142.89 168 1143.39 168C1143.89 168 1144.37 168.191 1144.72 168.531C1145.08 168.871 1145.27 169.333 1145.27 169.814V172.709Z" fill="#E8F5E9"/>
<path fill-rule="evenodd" clip-rule="evenodd" d="M1130.83 179.708H1127.17V176.761C1127.17 176.294 1127.36 175.846 1127.7 175.516C1128.05 175.185 1128.51 175 1129 175C1129.48 175 1129.95 175.185 1130.29 175.516C1130.63 175.846 1130.83 176.294 1130.83 176.761V179.708Z" fill="#E8F5E9"/>
<path d="M312.808 187.712L325.039 170H307.643L295.412 187.712V226.002H312.808V187.712Z" fill="#43A046"/>
<path d="M337 226.002H312.267V187.712L324.497 170L337 187.712V226.002Z" fill="url(#paint6_linear)"/>
<path fill-rule="evenodd" clip-rule="evenodd" d="M323.535 198.439H318.303V194.397C318.303 193.757 318.578 193.143 319.069 192.691C319.559 192.238 320.225 191.983 320.919 191.983C321.613 191.983 322.278 192.238 322.768 192.691C323.259 193.143 323.535 193.757 323.535 194.397V198.439ZM333.794 198.439H328.404V194.47C328.404 193.81 328.688 193.178 329.194 192.711C329.699 192.245 330.384 191.983 331.099 191.983C331.814 191.983 332.5 192.245 333.005 192.711C333.51 193.178 333.794 193.81 333.794 194.47V198.439ZM323.535 209.389H318.303V205.347C318.303 204.707 318.578 204.093 319.069 203.64C319.559 203.187 320.225 202.933 320.919 202.933C321.613 202.933 322.278 203.187 322.768 203.64C323.259 204.093 323.535 204.707 323.535 205.347V209.389ZM333.794 209.389H328.404V205.421C328.397 205.09 328.461 204.761 328.593 204.453C328.726 204.146 328.923 203.866 329.174 203.629C329.425 203.393 329.724 203.205 330.055 203.077C330.386 202.949 330.741 202.883 331.099 202.883C331.458 202.883 331.813 202.949 332.143 203.077C332.474 203.205 332.774 203.393 333.025 203.629C333.276 203.866 333.473 204.146 333.605 204.453C333.737 204.761 333.802 205.09 333.794 205.421V209.389Z" fill="#E8F5E9"/>
<path d="M288.67 187.712L300.901 170H283.506L271.275 187.712V226.002H288.67V187.712Z" fill="#43A046"/>
<path d="M312.863 226.002H288.129V187.712L300.36 170L312.863 187.712V226.002Z" fill="url(#paint7_linear)"/>
<path fill-rule="evenodd" clip-rule="evenodd" d="M299.397 198.439H294.165V194.397C294.165 193.757 294.441 193.143 294.931 192.691C295.422 192.238 296.087 191.983 296.781 191.983C297.475 191.983 298.14 192.238 298.631 192.691C299.122 193.143 299.397 193.757 299.397 194.397V198.439ZM309.657 198.439H304.267V194.47C304.267 193.81 304.551 193.178 305.056 192.711C305.562 192.245 306.247 191.983 306.962 191.983C307.677 191.983 308.362 192.245 308.868 192.711C309.373 193.178 309.657 193.81 309.657 194.47V198.439ZM299.397 209.389H294.165V205.347C294.165 204.707 294.441 204.093 294.931 203.64C295.422 203.187 296.087 202.933 296.781 202.933C297.475 202.933 298.14 203.187 298.631 203.64C299.122 204.093 299.397 204.707 299.397 205.347V209.389ZM309.657 209.389H304.267V205.421C304.259 205.09 304.324 204.761 304.456 204.453C304.588 204.146 304.786 203.866 305.037 203.629C305.287 203.393 305.587 203.205 305.918 203.077C306.248 202.949 306.603 202.883 306.962 202.883C307.32 202.883 307.675 202.949 308.006 203.077C308.337 203.205 308.636 203.393 308.887 203.629C309.138 203.866 309.335 204.146 309.468 204.453C309.6 204.761 309.664 205.09 309.657 205.421V209.389Z" fill="#E8F5E9"/>
<path fill-rule="evenodd" clip-rule="evenodd" d="M239 240.5C246.5 238.911 259.578 236.169 263.772 225.996L247.5 221C228.078 226.004 225 229.5 219.9 235.911C220.051 241.647 226 243.254 239 240.5Z" fill="#43A046" fill-opacity="0.5"/>
<path d="M264.324 187.712L276.554 170H259.159L246.928 187.712V226.002H264.324V187.712Z" fill="#43A046"/>
<path d="M288.516 226.002H263.782V187.712L276.013 170L288.516 187.712V226.002Z" fill="url(#paint8_linear)"/>
<path fill-rule="evenodd" clip-rule="evenodd" d="M275.051 198.439H269.819V194.397C269.819 193.757 270.094 193.143 270.585 192.691C271.075 192.238 271.741 191.983 272.435 191.983C273.128 191.983 273.794 192.238 274.284 192.691C274.775 193.143 275.051 193.757 275.051 194.397V198.439ZM285.31 198.439H279.92V194.47C279.92 193.81 280.204 193.178 280.709 192.711C281.215 192.245 281.9 191.983 282.615 191.983C283.33 191.983 284.015 192.245 284.521 192.711C285.026 193.178 285.31 193.81 285.31 194.47V198.439ZM275.051 209.389H269.819V205.347C269.819 204.707 270.094 204.093 270.585 203.64C271.075 203.187 271.741 202.933 272.435 202.933C273.128 202.933 273.794 203.187 274.284 203.64C274.775 204.093 275.051 204.707 275.051 205.347V209.389ZM285.31 209.389H279.92V205.421C279.913 205.09 279.977 204.761 280.109 204.453C280.241 204.146 280.439 203.866 280.69 203.629C280.941 203.393 281.24 203.205 281.571 203.077C281.902 202.949 282.257 202.883 282.615 202.883C282.974 202.883 283.329 202.949 283.659 203.077C283.99 203.205 284.289 203.393 284.54 203.629C284.791 203.866 284.989 204.146 285.121 204.453C285.253 204.761 285.317 205.09 285.31 205.421V209.389Z" fill="#E8F5E9"/>
<path fill-rule="evenodd" clip-rule="evenodd" d="M1050.16 223.887C1050.16 225.055 1043.21 226 1034.64 226C1026.07 226 1024.04 225.055 1024.04 223.887C1024.04 222.72 1026.07 221.774 1034.64 221.774C1043.21 221.774 1050.16 222.72 1050.16 223.887" fill="#43A046" fill-opacity="0.5"/>
<path fill-rule="evenodd" clip-rule="evenodd" d="M1048.63 223.695H1050.16V214.859H1048.63V223.695Z" fill="#2E7D31"/>
<path fill-rule="evenodd" clip-rule="evenodd" d="M1059 206.599C1059 211.797 1054.79 216.011 1049.59 216.011C1044.39 216.011 1040.18 211.797 1040.18 206.599C1040.18 201.401 1044.39 197.187 1049.59 197.187C1054.79 197.187 1059 201.401 1059 206.599Z" fill="#66BB69"/>
<path fill-rule="evenodd" clip-rule="evenodd" d="M1134.14 238.786C1134.14 240.088 1126.39 241.143 1116.82 241.143C1107.26 241.143 1105 240.088 1105 238.786C1105 237.484 1107.26 236.429 1116.82 236.429C1126.39 236.429 1134.14 237.484 1134.14 238.786" fill="#43A046" fill-opacity="0.5"/>
<path fill-rule="evenodd" clip-rule="evenodd" d="M1132.43 238.571H1134.14V228.714H1132.43V238.571Z" fill="#2E7D31"/>
<path fill-rule="evenodd" clip-rule="evenodd" d="M1144 219.5C1144 225.299 1139.3 230 1133.5 230C1127.7 230 1123 225.299 1123 219.5C1123 213.701 1127.7 209 1133.5 209C1139.3 209 1144 213.701 1144 219.5Z" fill="#66BB69"/>
<path fill-rule="evenodd" clip-rule="evenodd" d="M376.035 215.274C376.035 216.228 370.438 217 363.534 217C356.631 217 355 216.228 355 215.274C355 214.32 356.631 213.547 363.534 213.547C370.438 213.547 376.035 214.319 376.035 215.274Z" fill="#43A046" fill-opacity="0.5"/>
<path fill-rule="evenodd" clip-rule="evenodd" d="M374.465 215.116H376.035V207.581H374.465V215.116Z" fill="#2E7D31"/>
<path fill-rule="evenodd" clip-rule="evenodd" d="M382.942 197.764C382.942 202.053 379.498 208.837 375.25 208.837C371.002 208.837 367.558 202.053 367.558 197.764C367.558 193.476 371.002 190 375.25 190C379.498 190 382.942 193.476 382.942 197.764" fill="#66BB69"/>
<path fill-rule="evenodd" clip-rule="evenodd" d="M357.023 199.849C357.023 200.485 353.292 201 348.69 201C344.087 201 343 200.485 343 199.849C343 199.213 344.087 198.698 348.689 198.698C353.292 198.698 357.023 199.213 357.023 199.849Z" fill="#43A046" fill-opacity="0.5"/>
<path fill-rule="evenodd" clip-rule="evenodd" d="M355.977 199.744H357.023V194.721H355.977V199.744Z" fill="#2E7D31"/>
<path fill-rule="evenodd" clip-rule="evenodd" d="M361.628 188.176C361.628 191.035 359.332 195.558 356.5 195.558C353.668 195.558 351.372 191.035 351.372 188.176C351.372 185.318 353.668 183 356.5 183C359.332 183 361.628 185.317 361.628 188.176" fill="#66BB69"/>
<path fill-rule="evenodd" clip-rule="evenodd" d="M353.607 234.371C353.607 235.669 345.996 236.719 336.607 236.719C327.218 236.719 325 235.669 325 234.371C325 233.074 327.218 232.022 336.606 232.022C345.996 232.022 353.607 233.073 353.607 234.371Z" fill="#43A046" fill-opacity="0.5"/>
<path fill-rule="evenodd" clip-rule="evenodd" d="M351.472 234.157H353.607V223.91H351.472V234.157Z" fill="#2E7D31"/>
<path fill-rule="evenodd" clip-rule="evenodd" d="M363 210.559C363 216.391 358.316 225.618 352.539 225.618C346.762 225.618 342.079 216.391 342.079 210.559C342.079 204.728 346.762 200 352.539 200C358.316 200 363 204.727 363 210.559" fill="#66BB69"/>
</g>
<defs>
<linearGradient id="paint0_linear" x1="548.828" y1="155.786" x2="548.828" y2="202.326" gradientUnits="userSpaceOnUse">
<stop stop-color="#66BB69"/>
<stop offset="1" stop-color="#43A046"/>
</linearGradient>
<linearGradient id="paint1_linear" x1="513.53" y1="157.657" x2="513.53" y2="207" gradientUnits="userSpaceOnUse">
<stop stop-color="#66BB69"/>
<stop offset="1" stop-color="#43A046"/>
</linearGradient>
<linearGradient id="paint2_linear" x1="484.161" y1="134.34" x2="484.161" y2="200.395" gradientUnits="userSpaceOnUse">
<stop stop-color="#66BB69"/>
<stop offset="1" stop-color="#43A046"/>
</linearGradient>
<linearGradient id="paint3_linear" x1="470.35" y1="122.331" x2="470.35" y2="188.384" gradientUnits="userSpaceOnUse">
<stop stop-color="#66BB69"/>
<stop offset="1" stop-color="#43A046"/>
</linearGradient>
<linearGradient id="paint4_linear" x1="435.367" y1="118" x2="435.367" y2="178.385" gradientUnits="userSpaceOnUse">
<stop stop-color="#66BB69"/>
<stop offset="1" stop-color="#43A046"/>
</linearGradient>
<linearGradient id="paint5_linear" x1="1136" y1="156" x2="1136" y2="184" gradientUnits="userSpaceOnUse">
<stop stop-color="#66BB69"/>
<stop offset="1" stop-color="#4CAF50"/>
</linearGradient>
<linearGradient id="paint6_linear" x1="324.633" y1="170" x2="324.633" y2="226.002" gradientUnits="userSpaceOnUse">
<stop stop-color="#66BB69"/>
<stop offset="1" stop-color="#4CAF50"/>
</linearGradient>
<linearGradient id="paint7_linear" x1="300.496" y1="170" x2="300.496" y2="226.002" gradientUnits="userSpaceOnUse">
<stop stop-color="#66BB69"/>
<stop offset="1" stop-color="#4CAF50"/>
</linearGradient>
<linearGradient id="paint8_linear" x1="276.149" y1="170" x2="276.149" y2="226.002" gradientUnits="userSpaceOnUse">
<stop stop-color="#66BB69"/>
<stop offset="1" stop-color="#4CAF50"/>
</linearGradient>
<clipPath id="clip0">
<rect width="1180" height="251" fill="white"/>
</clipPath>
</defs>
</svg>
