<svg width="1178" height="837" viewBox="0 0 1178 837" fill="none" xmlns="http://www.w3.org/2000/svg">
<g clip-path="url(#clip0)">
<path d="M1182.82 537.54C1182.85 560.157 1180.48 582.713 1175.75 604.83C1174.16 612.237 1172.32 619.497 1170.22 626.61C1167.62 635.477 1164.65 644.073 1161.3 652.4C1159.6 656.64 1157.8 660.807 1155.91 664.9C1155.97 687.974 1151.85 710.869 1143.74 732.47C1129.39 770.47 1103.26 801.47 1070.56 819.58C1050.18 830.948 1027.24 836.923 1003.91 836.94H228.59C187.15 836.94 148.74 822.21 117.25 797.11C108.043 789.743 99.4881 781.596 91.68 772.76C80.8184 760.435 71.3883 746.919 63.57 732.47C45.43 699.12 34.98 659.86 34.98 617.84C16.03 579.47 5 533.47 5 483.97C5 421.58 22.56 364.68 51.41 321.59C57.3604 312.682 63.9476 304.217 71.12 296.26C78.0485 288.56 85.5862 281.43 93.66 274.94C99.9901 269.852 106.674 265.221 113.66 261.08C116.55 259.38 119.45 257.78 122.4 256.29C124.987 254.957 127.607 253.713 130.26 252.56C133.44 251.16 136.66 249.877 139.92 248.71C143.18 247.543 146.397 246.52 149.57 245.64C154.26 244.33 159.017 243.272 163.82 242.47C167.82 241.78 171.82 241.27 175.82 240.94C179 240.68 182.207 240.53 185.44 240.49C186.03 240.49 186.6 240.49 187.19 240.49C190.75 240.49 194.29 240.66 197.8 240.93C198.17 240.07 198.57 239.21 198.94 238.35C200.34 235.27 201.79 232.21 203.25 229.19C203.253 229.164 203.253 229.137 203.25 229.11C203.5 228.59 203.75 228.11 204.01 227.56C205.19 225.1 206.42 222.66 207.68 220.24C208.26 219.12 208.83 218.01 209.42 216.9C209.55 216.64 209.68 216.39 209.83 216.13C210.43 214.98 211.04 213.84 211.66 212.7C214.747 207.013 217.957 201.413 221.29 195.9C221.58 195.43 221.85 194.96 222.14 194.5C222.66 193.65 223.14 192.8 223.72 191.96C225.1 189.72 226.52 187.49 227.95 185.28C228.95 183.72 229.95 182.16 231.03 180.62C233.63 176.72 236.297 172.87 239.03 169.07C241.763 165.27 244.603 161.47 247.55 157.67C247.95 157.15 248.35 156.67 248.77 156.12L253.04 150.75L253.63 150.02L255.18 148.13C257.47 145.34 259.82 142.58 262.18 139.85C274.064 126.153 286.86 113.273 300.48 101.3C301.01 100.81 301.55 100.3 302.08 99.8802C304.62 97.6702 307.2 95.4902 309.78 93.3502C323.842 81.6907 338.679 70.9994 354.19 61.3502C355.25 60.6702 356.33 60.0102 357.42 59.3502C371.121 50.9789 385.31 43.4322 399.91 36.7502C407.91 33.0702 415.993 29.6635 424.16 26.5302C429.58 24.4702 435.02 22.5302 440.53 20.6902C449.05 17.8768 457.677 15.3268 466.41 13.0402C492.025 6.38669 518.23 2.26029 544.65 0.720171C552.65 0.240171 560.74 0.000171263 568.92 0.000171263C608.541 -0.0362019 647.955 5.72137 685.91 17.0902C686.258 17.7509 686.78 18.3035 687.42 18.6879C688.06 19.0723 688.793 19.2737 689.54 19.2702H692.91C694.37 19.7302 695.82 20.2102 697.28 20.6902C705.433 23.3968 713.47 26.3602 721.39 29.5802L723.39 30.4002C761.214 45.9612 796.466 67.1543 827.95 93.2602C830.29 95.1868 832.597 97.1435 834.87 99.1302C837.63 97.0835 840.437 95.1268 843.29 93.2602C854.144 86.0829 865.864 80.3102 878.17 76.0802C903.368 67.4068 930.532 66.1777 956.41 72.5402C989.66 80.6902 1019.76 100.91 1044.07 129.66C1054.09 141.607 1062.9 154.525 1070.36 168.22C1070.91 169.22 1071.46 170.22 1071.99 171.22C1078.56 183.618 1084.15 196.507 1088.73 209.77C1088.9 210.25 1089.07 210.77 1089.22 211.21C1093.51 223.81 1096.95 236.682 1099.52 249.74C1099.64 250.4 1099.78 251.07 1099.9 251.74C1102.32 264.478 1103.97 277.352 1104.82 290.29C1104.82 290.76 1104.82 291.23 1104.9 291.7C1105.32 298.407 1105.53 305.187 1105.54 312.04C1105.54 318.174 1105.37 324.247 1105.03 330.26C1105.03 330.93 1104.95 331.61 1104.9 332.26C1104.81 334.01 1104.68 335.76 1104.55 337.5C1112.26 344.7 1119.41 352.483 1125.93 360.78C1128.84 364.467 1131.66 368.284 1134.39 372.23C1142.78 384.41 1150.08 397.31 1156.19 410.78C1173.1 447.73 1182.82 491.11 1182.82 537.54Z" fill="#E8F5E9"/>
<path d="M1072.82 798.3C1072.82 813.15 1026.9 826.7 951.44 836.94H243.44C167.99 826.7 122.07 813.15 122.07 798.3C122.07 786.99 148.71 776.43 194.77 767.51L196.07 767.26C209.07 764.77 223.6 762.41 239.48 760.2L240.69 760.03C253.29 758.29 266.693 756.647 280.9 755.1L282.24 754.96C287.72 754.36 293.313 753.78 299.02 753.22L301.22 753.01C342.77 749.01 390 745.77 441.22 743.6H441.28C448.453 743.3 455.703 743.02 463.03 742.76C471.177 742.46 479.423 742.193 487.77 741.96C494.14 741.77 500.59 741.61 507.06 741.46H507.21C536.4 740.77 566.56 740.41 597.4 740.41C673.66 740.41 745.74 742.6 809.61 746.49H809.79C819.61 747.09 829.25 747.72 838.65 748.4L846.65 748.99C857.257 749.79 867.59 750.637 877.65 751.53C995.98 762.06 1072.82 779.09 1072.82 798.3Z" fill="#C8E6C9"/>
<path d="M1001.49 104.91V560.53C1001.49 563.713 1000.23 566.765 997.975 569.015C995.725 571.266 992.673 572.53 989.49 572.53H176C172.817 572.53 169.765 571.266 167.515 569.015C165.264 566.765 164 563.713 164 560.53V242.12C168 241.43 172 240.92 176 240.59C179.18 240.33 182.387 240.18 185.62 240.14C186.21 240.14 186.78 240.14 187.37 240.14C190.93 240.14 194.47 240.31 197.98 240.58C198.35 239.72 198.75 238.86 199.12 238C200.52 234.92 201.97 231.86 203.43 228.84C203.433 228.813 203.433 228.787 203.43 228.76C203.68 228.24 203.93 227.76 204.19 227.21C205.37 224.75 206.6 222.31 207.86 219.89C208.44 218.77 209.01 217.66 209.6 216.55C209.73 216.29 209.86 216.04 210.01 215.78C210.61 214.63 211.22 213.49 211.84 212.35C214.927 206.663 218.137 201.063 221.47 195.55C221.76 195.08 222.03 194.61 222.32 194.15C222.84 193.3 223.32 192.45 223.9 191.61C225.28 189.37 226.7 187.14 228.13 184.93C229.13 183.37 230.13 181.81 231.21 180.27C233.81 176.37 236.477 172.52 239.21 168.72C241.943 164.92 244.783 161.12 247.73 157.32C248.13 156.8 248.53 156.32 248.95 155.77L253.22 150.4L253.81 149.67L255.36 147.78C257.65 144.99 260 142.23 262.36 139.5C274.244 125.802 287.04 112.923 300.66 100.95C301.19 100.46 301.73 99.95 302.26 99.53C304.8 97.32 307.38 95.14 309.96 93H828.16C830.5 94.9267 832.807 96.8833 835.08 98.87C837.84 96.8233 840.647 94.8667 843.5 93H989.5C992.665 93.0025 995.701 94.2556 997.947 96.4864C1000.19 98.7171 1001.47 101.745 1001.49 104.91V104.91Z" fill="white"/>
<path d="M948.34 180.56V191.9H218.79C220.17 189.66 221.59 187.43 223.03 185.22C224.03 183.66 225.03 182.1 226.1 180.56H948.34Z" fill="#3F3D56"/>
<path d="M791.86 557.01V125.16H780.52V557.01H791.86Z" fill="#3F3D56"/>
<path d="M583.23 557.01V125.16H571.89V557.01H583.23Z" fill="#3F3D56"/>
<path d="M374.6 557.01V125.16H363.26V557.01H374.6Z" fill="#3F3D56"/>
<path d="M244.4 216.07V260.73H198.28V229.13C198.28 229.13 198.28 229.08 198.28 229.05C198.53 228.53 198.78 228.05 199.04 227.5C200.23 225.04 201.45 222.6 202.72 220.18C203.29 219.06 203.86 217.95 204.45 216.84C204.58 216.58 204.72 216.33 204.86 216.07H244.4Z" fill="url(#paint0_linear)"/>
<path d="M243.61 216.84V259.96H199.08V227.47C200.27 225.01 201.49 222.57 202.76 220.15C203.33 219.03 203.9 217.92 204.49 216.81L243.61 216.84Z" fill="#A5D6A7"/>
<path d="M431.21 202.46H385.08V247.12H431.21V202.46Z" fill="url(#paint1_linear)"/>
<path d="M430.42 203.23H385.88V246.35H430.42V203.23Z" fill="#A5D6A7"/>
<path d="M639.56 289.17H593.43V333.83H639.56V289.17Z" fill="url(#paint2_linear)"/>
<path d="M638.77 289.94H594.23V333.06H638.77V289.94Z" fill="#A5D6A7"/>
<path d="M852.16 318.75H806.03V363.41H852.16V318.75Z" fill="url(#paint3_linear)"/>
<path d="M851.36 319.52H806.82V362.64H851.36V319.52Z" fill="#7CFCFF"/>
<path d="M909.12 347.66H862.99V392.32H909.12V347.66Z" fill="url(#paint4_linear)"/>
<path d="M908.33 348.43H863.79V391.55H908.33V348.43Z" fill="#7CFCFF"/>
<path d="M980.56 270.41H934.43V315.07H980.56V270.41Z" fill="url(#paint5_linear)"/>
<path d="M979.76 271.18H935.22V314.3H979.76V271.18Z" fill="#A5D6A7"/>
<path d="M966.1 333.07H919.97V377.73H966.1V333.07Z" fill="url(#paint6_linear)"/>
<path d="M965.3 333.84H920.76V376.96H965.3V333.84Z" fill="#A5D6A7"/>
<path d="M494.14 202.46H448.01V247.12H494.14V202.46Z" fill="url(#paint7_linear)"/>
<path d="M493.35 203.23H448.81V246.35H493.35V203.23Z" fill="#A5D6A7"/>
<path d="M278.6 310.73H232.47V355.39H278.6V310.73Z" fill="url(#paint8_linear)"/>
<path d="M277.8 311.5H233.26V354.62H277.8V311.5Z" fill="#A5D6A7"/>
<path d="M464.5 266.84H418.37V311.5H464.5V266.84Z" fill="url(#paint9_linear)"/>
<path d="M463.71 267.61H419.17V310.73H463.71V267.61Z" fill="#A5D6A7"/>
<path d="M704.94 240.15H658.81V284.81H704.94V240.15Z" fill="url(#paint10_linear)"/>
<path d="M704.14 240.92H659.6V284.04H704.14V240.92Z" fill="#A5D6A7"/>
<path d="M948.33 208.83H902.2V253.49H948.33V208.83Z" fill="url(#paint11_linear)"/>
<path d="M947.54 209.6H903V252.72H947.54V209.6Z" fill="#A5D6A7"/>
<path d="M765.8 202.46H719.67V247.12H765.8V202.46Z" fill="url(#paint12_linear)"/>
<path d="M765 203.23H720.46V246.35H765V203.23Z" fill="#A5D6A7"/>
<path d="M763.18 289.17H717.05V333.83H763.18V289.17Z" fill="url(#paint13_linear)"/>
<path d="M762.39 289.94H717.85V333.06H762.39V289.94Z" fill="#A5D6A7"/>
<path d="M556.08 224.03H509.95V268.69H556.08V224.03Z" fill="url(#paint14_linear)"/>
<path d="M555.29 224.79H510.75V267.91H555.29V224.79Z" fill="#A5D6A7"/>
<path d="M310.98 238.4H264.85V283.06H310.98V238.4Z" fill="url(#paint15_linear)"/>
<path d="M310.19 239.17H265.65V282.29H310.19V239.17Z" fill="#A5D6A7"/>
<path d="M334.05 289.17H287.92V333.83H334.05V289.17Z" fill="url(#paint16_linear)"/>
<path d="M333.25 289.94H288.71V333.06H333.25V289.94Z" fill="#A5D6A7"/>
<path d="M525.39 296.42H479.26V341.08H525.39V296.42Z" fill="url(#paint17_linear)"/>
<path d="M524.59 297.19H480.05V340.31H524.59V297.19Z" fill="#A5D6A7"/>
<path d="M862.99 208.83H816.86V253.49H862.99V208.83Z" fill="url(#paint18_linear)"/>
<path d="M862.2 209.6H817.66V252.72H862.2V209.6Z" fill="#A5D6A7"/>
<path d="M903.81 270.41H857.68V315.07H903.81V270.41Z" fill="url(#paint19_linear)"/>
<path d="M903.02 271.18H858.48V314.3H903.02V271.18Z" fill="#A5D6A7"/>
<path d="M643.59 202.46H597.46V247.12H643.59V202.46Z" fill="url(#paint20_linear)"/>
<path d="M642.8 203.23H598.26V246.35H642.8V203.23Z" fill="#A5D6A7"/>
<path d="M699.72 333.07H653.59V377.73H699.72V333.07Z" fill="url(#paint21_linear)"/>
<path d="M698.92 333.84H654.38V376.96H698.92V333.84Z" fill="#A5D6A7"/>
<path d="M827.7 305.87C827.57 310.94 825.85 315.87 825.58 320.93C840.58 321.67 855.27 314.42 870.06 316.64C865.93 313.97 863.72 309.14 862.42 304.39C860.757 298.264 860.262 291.879 860.96 285.57C860.998 285.233 861.058 284.899 861.14 284.57C861.69 282.09 863.14 278.57 862.73 276.62C862.23 274.04 859.79 274.55 857.6 274.7C850.913 275.212 844.258 276.069 837.66 277.27C835.94 277.57 819.19 281.75 818.94 281.32C821.7 286.09 824.51 291.05 826.19 296.25C827.23 299.349 827.741 302.601 827.7 305.87V305.87Z" fill="#EE8E9E"/>
<path d="M679.91 290.19C681.194 291.944 682.734 293.495 684.48 294.79C685.61 295.72 686.77 296.67 687.99 297.52C690.16 299.182 692.743 300.219 695.46 300.52C699.02 300.76 706.58 298.67 708.79 295.62C709.722 294.089 710.165 292.31 710.06 290.52C710.023 288.091 709.611 285.683 708.84 283.38C707.451 279.636 705.506 276.123 703.07 272.96C700.5 269.38 697.64 265.86 693.81 263.69C692.534 263.008 691.219 262.403 689.87 261.88L682.87 259.02C682.471 258.831 682.04 258.719 681.6 258.69C679.73 258.69 679.39 261.56 680.45 263.1C682.57 266.21 687.34 267.1 688.68 270.6C687.547 270.627 686.452 271.013 685.553 271.703C684.654 272.394 683.998 273.352 683.68 274.44C683.627 275.018 683.393 275.564 683.01 276C682.4 276.49 681.44 276.21 680.74 276.58C679.51 277.24 680.05 279.08 679.92 280.48C679.8 281.72 679.02 282.79 678.64 283.98C678.381 285.045 678.361 286.154 678.581 287.227C678.8 288.301 679.254 289.312 679.91 290.19V290.19Z" fill="#EE8E9E"/>
<path d="M885.91 798.99C884.76 797.84 882.91 798.04 881.27 798.29C872.646 799.652 863.931 800.358 855.2 800.4C854.11 795.06 857.28 789.87 858.3 784.52C858.434 783.145 858.771 781.797 859.3 780.52C860.52 778.16 863.3 777.08 865.9 776.52C870.6 775.52 877.9 773.78 880.57 778.52C883.76 784.23 884.77 792.65 885.91 798.99Z" fill="#65617D"/>
<path d="M790.4 778.83C793.94 781.25 798.34 782 802.6 782.55C806.86 783.1 811.24 783.5 815.1 785.4C818.43 787.04 821.23 789.74 824.76 790.92C827.96 791.99 831.46 791.7 834.76 791.08C838.76 790.34 842.94 788.89 845.08 785.47C846.99 782.47 846.78 778.58 846.52 775C846.21 771 845.92 766.9 845.62 762.85C845.629 761.822 845.371 760.808 844.87 759.91C842 755.74 835.04 761.66 831.32 761.65C825.41 761.65 819.07 758.45 814.82 754.53C814.451 754.129 814.018 753.791 813.54 753.53C811.85 752.77 810.17 754.17 808.67 755.39C808.51 755.53 808.34 755.66 808.17 755.79C804.72 758.53 800.1 759.08 795.84 760.19C791.58 761.3 787.01 763.53 785.69 767.73C785.605 767.995 785.538 768.266 785.49 768.54C784.73 772.47 787.09 776.56 790.4 778.83Z" fill="#3F3D56"/>
<path opacity="0.05" d="M790.4 778.83C793.94 781.25 798.34 782 802.6 782.55C806.86 783.1 811.24 783.5 815.1 785.4C818.43 787.04 821.23 789.74 824.76 790.92C827.96 791.99 831.46 791.7 834.76 791.08C838.76 790.34 842.94 788.89 845.08 785.47C846.99 782.47 846.78 778.58 846.52 775C846.21 771 845.92 766.9 845.62 762.85C845.629 761.822 845.371 760.808 844.87 759.91C842 755.74 835.04 761.66 831.32 761.65C825.41 761.65 819.07 758.45 814.82 754.53C814.451 754.129 814.018 753.791 813.54 753.53C811.85 752.77 810.17 754.17 808.67 755.39C808.51 755.53 808.34 755.66 808.17 755.79C804.72 758.53 800.1 759.08 795.84 760.19C791.58 761.3 787.01 763.53 785.69 767.73C785.605 767.995 785.538 768.266 785.49 768.54C784.73 772.47 787.09 776.56 790.4 778.83Z" fill="black"/>
<path d="M790.4 780.19C793.94 782.61 798.34 783.36 802.6 783.91C806.86 784.46 811.24 784.86 815.1 786.76C818.43 788.41 821.23 791.1 824.76 792.28C827.96 793.35 831.46 793.06 834.76 792.44C838.981 791.54 842.683 789.029 845.08 785.44C846.99 782.44 846.78 778.55 846.52 774.97C846.21 770.97 845.92 766.87 845.62 762.82C845.629 761.791 845.371 760.778 844.87 759.88C842 755.71 835.04 761.63 831.32 761.62C825.41 761.62 819.07 758.42 814.82 754.5C814.451 754.099 814.018 753.761 813.54 753.5C811.85 752.74 810.17 754.14 808.67 755.36C809.657 758.389 811.054 761.269 812.82 763.92C815.82 768.31 820.54 771.67 825.82 772.06C828.46 772.25 831.17 771.73 833.72 772.41C836.27 773.09 838.65 775.7 837.72 778.18C836.79 780.66 833.72 781.18 831.14 781.27C827.53 781.46 823.83 781.64 820.41 780.52C818.32 779.82 816.41 778.67 814.41 777.82C805.76 774.23 794.83 776.24 787.68 770.18C787.005 769.559 786.276 769 785.5 768.51C783.63 772.47 787.09 777.92 790.4 780.19Z" fill="#F5F5F5"/>
<path d="M884.3 515.4C887.059 528.938 884.441 543.018 877 554.66C875 557.8 872.6 560.75 871.08 564.16C870.082 566.598 869.305 569.122 868.76 571.7L862.2 598.89C860.42 606.23 858.64 613.71 859.2 621.24C859.57 626.49 860.89 632.39 857.66 636.54C856.864 637.329 856.189 638.232 855.66 639.22C855.35 640.38 855.35 641.6 855.66 642.76C858.98 662.5 861.45 683.13 855.45 702.23C850.01 719.54 849.69 738.72 845.07 756.23C844.5 758.41 843.84 760.7 842.19 762.23C840.951 763.254 839.471 763.942 837.89 764.23C831.07 765.86 823.89 763.95 817.51 761.01C813.04 758.94 808.23 755.31 808.61 750.4C808.8 748.06 810.16 746.01 811.09 743.86C812.9 739.64 813.09 734.93 813.54 730.36C814.77 718.88 818.31 707.81 820.98 696.58C823.65 685.35 825.47 673.63 823.21 662.31C818.603 638.908 811.217 616.14 801.21 594.49C800.778 593.352 800.094 592.326 799.21 591.49C798.31 590.75 797.12 590.41 796.35 589.49C795.58 588.57 795.35 587.17 795.05 585.94C794.05 582.36 791.1 579.72 789.12 576.57C784.12 568.63 785.7 558.45 785.89 549.07C786.07 539.94 784.76 530.73 786.25 521.73C787.74 512.73 792.9 503.53 801.58 500.73C805.88 499.34 810.53 499.65 815.03 500.1C838.77 502.47 861.91 506.84 884.3 515.4Z" fill="#434343"/>
<path d="M787.22 572.63C787.295 576.173 787.697 579.701 788.42 583.17C792.62 606.737 797.097 630.25 801.85 653.71C802.27 655.71 802.68 657.78 803.23 659.78C805.003 666.308 808.101 672.401 812.33 677.68C832.13 702.36 833.84 738.21 844.59 767.98C845.31 769.98 846.04 771.98 846.81 773.98C848.747 779.028 850.96 783.965 853.44 788.77C853.725 789.472 854.195 790.084 854.8 790.54C855.468 790.875 856.215 791.02 856.96 790.96C866.639 791.025 876.203 788.859 884.91 784.63C886.162 784.178 887.221 783.31 887.91 782.17C888.239 781.262 888.345 780.288 888.22 779.33C887.92 773.43 887.56 767.33 884.75 762.13C882.879 759.027 880.56 756.217 877.87 753.79C877.03 735.27 875.2 716.71 871.13 698.62C869.04 689.37 866.45 680.02 861.13 672.2C857.13 666.43 851.49 660.74 852.19 653.77C852.5 650.77 853.78 646.91 851.29 645.11C850.2 644.32 848.59 644.22 847.86 643.11C847.565 642.583 847.401 641.993 847.38 641.39C846.866 636.611 847.164 631.78 848.26 627.1C848.98 624 850.06 620.96 850.39 617.79C850.72 614.62 850.16 611.17 848.05 608.79C847.92 602.43 848.05 595.79 847.96 589.49C847.9 585.86 847.83 582.18 848.85 578.71C849.34 577.04 850.07 575.45 850.44 573.71C851.77 567.61 848.44 560.29 852.44 555.45C854.09 553.45 856.63 552.45 858.78 550.99C863.09 548.11 865.91 543.41 867.48 538.48C869.05 533.55 869.48 528.33 869.95 523.16C870.065 522.06 870.065 520.95 869.95 519.85C869.884 519.282 869.735 518.726 869.51 518.2C868.28 515.44 864.98 514.37 862.04 513.66C843.372 509.182 824.237 506.946 805.04 507C797.94 502.16 793.94 503.89 790.93 509C789.274 512.129 787.934 515.415 786.93 518.81C785.55 522.96 785.47 546.22 784.13 550.39C782.26 555.85 787.29 566.93 787.22 572.63Z" fill="#555555"/>
<path d="M915.61 361.01C916.14 364.67 914.38 368.27 914.18 371.96C914.01 375.18 915.04 378.33 915.63 381.51C917.92 393.91 913.52 406.46 909.03 418.24C908.183 420.14 907.656 422.168 907.47 424.24C907.35 428.09 909.56 431.61 910.17 435.41C911.44 443.41 905.56 450.9 905.43 458.99C905.43 462.71 906.55 466.5 905.62 470.1C905 472.51 903.5 474.57 902.43 476.82C900.54 480.82 900.04 485.31 898.23 489.32C894.98 496.58 887.98 501.32 881.33 505.67C877.54 504.41 873.44 502.91 871.33 499.5C870.418 497.822 869.831 495.986 869.6 494.09C868.16 485.82 868.21 477.38 868.26 468.99C868.156 461.798 868.551 454.608 869.44 447.47C870.78 438.35 873.74 429.56 875.86 420.59C878.54 409.28 879.86 397.59 884.08 386.74C887.74 377.2 893.45 368.64 899.46 360.45C901.75 357.32 903.56 352.85 908.01 353.57C909.884 353.887 911.617 354.77 912.975 356.1C914.334 357.429 915.253 359.143 915.61 361.01V361.01Z" fill="#43A046"/>
<path opacity="0.1" d="M818.91 281.28C821.67 286.05 824.48 291.01 826.16 296.21C828.853 296.874 831.616 297.21 834.39 297.21C845.16 297.21 852.79 291.08 859.12 283.34C859.67 280.85 863.12 278.54 862.7 276.58C862.2 274 859.76 274.51 857.57 274.66C850.883 275.172 844.228 276.029 837.63 277.23C835.91 277.53 819.19 281.71 818.91 281.28Z" fill="black"/>
<path d="M834.42 296.27C853.479 296.27 868.93 280.819 868.93 261.76C868.93 242.701 853.479 227.25 834.42 227.25C815.361 227.25 799.91 242.701 799.91 261.76C799.91 280.819 815.361 296.27 834.42 296.27Z" fill="#EE8E9E"/>
<path opacity="0.1" d="M790.81 509.03C796.81 508.68 802.81 508.92 808.81 509.16C812.558 509.197 816.294 509.582 819.97 510.31C824.5 511.31 828.74 513.4 833.21 514.69C840.37 516.78 847.93 516.87 855.34 517.6C860.21 518.076 865.048 518.834 869.83 519.87C869.764 519.302 869.615 518.746 869.39 518.22C868.16 515.46 864.86 514.39 861.92 513.68C843.252 509.202 824.117 506.966 804.92 507.02C797.82 502.18 793.82 503.91 790.81 509.03Z" fill="black"/>
<path d="M814.33 318.26C815.84 320 817.86 321.92 820.09 321.36C820.895 321.081 821.651 320.676 822.33 320.16C826.33 317.59 831.19 316.99 835.87 316.29C845.304 314.868 854.625 312.773 863.76 310.02C866.411 309.053 869.192 308.487 872.01 308.34C877.86 308.34 883.01 312.26 886.71 316.82C890.41 321.38 892.97 326.71 896.57 331.32C899.13 334.61 902.18 337.51 904.57 340.92C910.57 349.53 911.91 360.77 910.35 371.18C908.79 381.59 904.63 391.39 900.51 401.08C898.15 406.63 895.77 412.21 892.51 417.27C893.9 425.18 893.17 434.22 889.41 441.27C888.18 443.58 886.68 445.83 886.28 448.42C886.09 450.167 886.161 451.933 886.49 453.66L888.25 466.15C888.78 469.96 889.32 473.76 890.01 477.54C891.28 484.46 893.01 491.97 889.8 498.23C885.96 505.72 889.99 515.33 888.98 523.69C878.183 519.516 866.87 516.825 855.35 515.69C847.93 514.96 840.35 514.87 833.22 512.79C828.75 511.49 824.52 509.43 819.98 508.39C816.299 507.669 812.56 507.288 808.81 507.25C800.54 506.92 792.21 506.59 784.03 507.81C783.36 507.91 782.56 507.96 782.16 507.42C781.98 507.118 781.893 506.771 781.91 506.42C781.784 503.353 782.518 500.312 784.03 497.64C785.03 495.8 786.52 493.99 786.48 491.88C786.405 490.892 786.162 489.925 785.76 489.02L782.14 479.34C779.07 471.18 780.53 461.69 778.94 453.12C777.698 446.417 776.903 439.639 776.56 432.83C776.26 427.01 776.45 420.7 779.96 416.05C780.988 414.93 781.877 413.692 782.61 412.36C783.116 410.948 783.33 409.447 783.24 407.95C783.32 396.31 782.987 384.673 782.24 373.04C785.31 367.54 788.5 361.91 791.56 356.41C795.12 350.01 798.74 343.48 800.18 336.3C801.18 331.54 801.1 326.65 801.78 321.85C801.847 320.628 802.271 319.453 803 318.47C804.17 317.15 806.14 316.96 807.91 317.01C810.101 317.097 812.266 317.519 814.33 318.26V318.26Z" fill="#4CAF4F"/>
<path opacity="0.1" d="M687.98 297.52C690.15 299.182 692.733 300.219 695.45 300.52C699.01 300.76 706.57 298.67 708.78 295.62C709.712 294.089 710.155 292.31 710.05 290.52C709.57 290.363 709.073 290.266 708.57 290.23C704.7 290 700.75 289.77 696.99 290.7C693.23 291.63 689.59 293.91 687.99 297.45L687.98 297.52Z" fill="black"/>
<path d="M802.81 372.17C800.7 374.78 798.52 377.48 795.54 379.02C792.11 380.8 788.07 380.84 784.21 380.76C768.305 380.42 752.46 378.68 736.86 375.56C735.084 375.255 733.34 374.786 731.65 374.16C729.776 373.267 728.008 372.167 726.38 370.88C721.25 367.19 716.04 363.43 712.13 358.45C707.489 352.441 704.572 345.281 703.69 337.74C699.97 334.32 698 329.45 696.14 324.74C695.226 322.745 694.645 320.613 694.42 318.43C694.32 316.2 695.8 313.86 695.42 311.66C694.704 307.873 692.786 304.419 689.95 301.81C689.344 301.383 688.887 300.779 688.64 300.08C688.567 299.497 688.679 298.906 688.96 298.39C690.54 294.85 694.18 292.57 697.96 291.64C701.74 290.71 705.67 290.95 709.54 291.18C710.94 291.27 711.96 291.92 713.33 292.18L716.03 299.29C716.396 300.478 716.998 301.58 717.8 302.53C718.401 303.074 719.039 303.575 719.71 304.03C721.078 305.195 722.139 306.677 722.801 308.347C723.464 310.017 723.707 311.824 723.51 313.61C725.949 314.556 727.937 316.396 729.068 318.755C730.2 321.114 730.39 323.816 729.6 326.31C731.63 326.747 733.514 327.696 735.073 329.069C736.631 330.442 737.811 332.191 738.5 334.15C738.692 335.042 739.089 335.878 739.66 336.59C740.546 337.28 741.648 337.634 742.77 337.59C745.77 337.78 748.48 340.18 751.25 338.88C754.376 337.413 757.871 336.922 761.28 337.47C761.984 337.638 762.708 337.702 763.43 337.66C764.046 337.552 764.64 337.346 765.19 337.05C766.437 336.327 767.785 335.794 769.19 335.47C769.896 335.323 770.63 335.384 771.302 335.645C771.975 335.906 772.557 336.356 772.98 336.94C773.98 335.88 774.53 334.52 775.41 333.39C775.8 332.784 776.35 332.298 777 331.987C777.65 331.677 778.374 331.553 779.09 331.63C778.17 330.81 779.09 329.18 780.3 328.88C781.51 328.58 782.75 329.02 783.98 329.02C787.17 329.02 789.62 326.1 792.72 325.34C795.57 324.65 799.37 325.48 800.83 322.93C801.35 322.03 801.45 320.81 802.33 320.26C802.924 319.964 803.603 319.882 804.25 320.03C806.276 320.301 808.245 320.899 810.08 321.8C813.08 333.49 811.5 345.63 809.22 357.48C808.13 363.11 806.41 367.67 802.81 372.17Z" fill="#4CAF4F"/>
<path opacity="0.1" d="M802.91 414.06L817.77 444.06C816.16 441.29 812.77 440.21 810.1 438.44C806.699 435.991 804.139 432.551 802.77 428.59C801.398 424.64 800.44 420.558 799.91 416.41C799.61 414.51 798.98 411.84 799.91 410.12C801.64 410.47 802.2 412.65 802.91 414.06Z" fill="black"/>
<path opacity="0.1" d="M845.66 439.47C849.01 442.79 853.12 445.23 856.81 448.17C865.43 455.03 871.57 464.45 877.57 473.69C879.264 476.12 880.686 478.729 881.81 481.47C881.11 482.08 880.06 481.47 879.37 480.84L867.69 470.58C866.259 469.407 864.955 468.086 863.8 466.64C861.8 463.92 860.88 460.51 859.04 457.64C857.2 454.77 854.52 452.64 851.95 450.41C849.38 448.18 836.95 437.7 839.95 433.66C842.12 434.74 843.91 437.74 845.66 439.47Z" fill="black"/>
<path d="M820.16 309.6C823.86 307.29 828.22 306.32 832.51 305.53C835.086 304.945 837.737 304.756 840.37 304.97C842.8 305.27 845.13 306.21 847.58 306.34C851.01 306.54 854.3 305.14 857.58 304.24C860.86 303.34 864.73 302.98 867.52 304.99C868.114 305.574 868.864 305.973 869.68 306.14C870.527 306.037 871.313 305.649 871.91 305.04C874.259 303.361 877.109 302.53 879.992 302.682C882.875 302.835 885.621 303.962 887.78 305.88C894.11 311.81 893.4 323.4 900.78 327.88C902.83 329.12 905.44 329.78 906.63 331.88C906.913 332.542 907.248 333.18 907.63 333.79C908.125 334.336 908.732 334.769 909.41 335.06C911.563 336.02 913.614 337.196 915.53 338.57C916.484 339.265 917.288 340.147 917.892 341.161C918.497 342.174 918.891 343.3 919.05 344.47C919.085 346.199 918.711 347.912 917.96 349.47C914.334 358.371 908.039 365.931 899.942 371.11C891.844 376.288 882.342 378.832 872.74 378.39C871.05 378.31 869.22 378.08 868 376.91C867.287 376.107 866.724 375.182 866.34 374.18C862.86 366.87 856.34 361.47 852.15 354.52C849.67 350.38 848.08 345.75 845.5 341.67C841.66 335.47 835.71 330.86 829.91 326.47C826.63 323.97 822.98 321.35 818.85 321.52C815.18 321.68 812.5 321.88 813.85 317.37C814.957 314.109 817.196 311.353 820.16 309.6V309.6Z" fill="#43A046"/>
<path d="M802.2 809.82C804.7 812.15 808.14 813.17 811.47 813.9C819.06 815.56 826.82 816.15 834.56 816.75L842.1 817.33C849.46 817.88 856.83 818.45 864.22 818.48C873.339 818.513 882.442 817.727 891.42 816.13C891.78 816.168 892.145 816.12 892.483 815.99C892.821 815.86 893.124 815.652 893.367 815.383C893.609 815.114 893.785 814.792 893.88 814.442C893.974 814.092 893.984 813.725 893.91 813.37C893.755 804.175 892.636 795.021 890.57 786.06C889.71 782.38 883.11 790.63 882.82 790.98C880.99 793.06 879.6 793.98 876.82 794.16C869.23 794.58 860.72 789.96 854.69 785.86C853.4 784.896 852.028 784.046 850.59 783.32C849.542 782.826 848.426 782.489 847.28 782.32C843.37 781.96 839.441 782.757 835.98 784.61C831.45 786.86 827.47 790.09 822.98 792.4C819.333 794.28 815.394 795.528 811.33 796.09C807.22 796.66 802.33 796.93 800.2 800.49C798.45 803.47 799.71 807.47 802.2 809.82Z" fill="#3F3D56"/>
<path d="M802.2 811.18C804.7 813.51 808.14 814.53 811.47 815.26C819.06 816.92 826.82 817.51 834.56 818.11L842.1 818.69C849.46 819.24 856.83 819.81 864.22 819.84C873.339 819.873 882.442 819.087 891.42 817.49C891.829 817.479 892.232 817.385 892.603 817.213C892.975 817.041 893.307 816.795 893.58 816.49C893.9 815.99 895.27 814 895.26 813.41C895.11 804.22 892.62 795.05 890.56 786.1C889.7 782.42 883.1 790.67 882.81 791.02C880.98 793.1 879.59 794.02 876.81 794.2C869.22 794.62 860.71 790 854.68 785.9C853.39 784.935 852.018 784.086 850.58 783.36C849.532 782.866 848.416 782.529 847.27 782.36C848.27 787.82 856.08 794.42 860.12 796.43C868.3 800.49 878.02 798.43 887.12 798.94C887.787 798.922 888.447 799.084 889.03 799.41C890.13 800.13 890.19 801.68 890.16 802.99C890.08 805.17 889.8 807.72 887.92 808.83C886.986 809.281 885.956 809.497 884.92 809.46C862.426 810.449 839.889 809.66 817.52 807.1C813.751 806.849 810.042 806.026 806.52 804.66C804.222 803.587 802.079 802.207 800.15 800.56C797.31 802.83 799.71 808.85 802.2 811.18Z" fill="#F5F5F5"/>
<path d="M820.99 261.39C821.12 264.96 818.69 271.88 825.36 269.95C829.36 268.79 830.46 264.08 835.51 265.13C840.56 266.18 841.72 272.4 843.43 276.47C844.821 279.706 846.98 282.554 849.719 284.768C852.458 286.983 855.695 288.497 859.15 289.18C860.574 289.515 862.056 289.515 863.48 289.18C866.74 288.25 868.6 284.89 869.93 281.78C871.076 279.146 872.028 276.432 872.78 273.66C873.289 271.693 873.624 269.686 873.78 267.66V267.66C873.885 266.289 873.885 264.911 873.78 263.54C873.17 255.43 868.56 248.03 862.64 242.43C856.72 236.83 849.55 232.8 842.46 228.81C840.143 227.362 837.636 226.245 835.01 225.49C832.423 224.968 829.77 224.86 827.15 225.17C823.697 225.309 820.303 226.107 817.15 227.52C815.858 228.159 814.671 228.992 813.63 229.99C812.165 231.366 811.124 233.132 810.63 235.08C809.35 240.33 812.69 245.08 815.41 249.19C817.82 252.89 820.81 256.8 820.99 261.39Z" fill="#434343"/>
<path opacity="0.1" d="M708.68 337.98C710.11 334.39 716.11 324.45 714.37 321.03C712.573 323.582 711.045 326.313 709.81 329.18C708.68 331.96 709.6 335.69 708.68 337.98Z" fill="black"/>
<path opacity="0.1" d="M815.26 249.21C812.54 245.06 809.19 240.34 810.47 235.1C811.105 232.796 812.466 230.759 814.35 229.29C813.906 230.057 813.569 230.881 813.35 231.74C812.07 236.98 815.42 241.74 818.14 245.85C820.55 249.53 823.54 253.44 823.72 258.03C823.85 261.59 821.41 268.52 828.09 266.59C832.09 265.44 833.19 260.72 838.24 261.78C843.29 262.84 844.44 269.04 846.15 273.11C847.548 276.349 849.713 279.198 852.459 281.413C855.205 283.627 858.449 285.14 861.91 285.82C863.334 286.155 864.816 286.155 866.24 285.82C866.96 285.605 867.636 285.267 868.24 284.82C867.222 286.86 865.45 288.423 863.3 289.18C861.876 289.515 860.394 289.515 858.97 289.18C855.52 288.491 852.288 286.974 849.553 284.76C846.819 282.546 844.662 279.701 843.27 276.47C841.56 272.4 840.45 266.2 835.36 265.13C830.27 264.06 829.19 268.8 825.21 269.95C818.53 271.88 820.97 264.95 820.84 261.39C820.67 256.8 817.67 252.89 815.26 249.21Z" fill="black"/>
<path d="M813.78 241.19C814.391 242.2 815.058 243.175 815.78 244.11C817.195 245.886 818.775 247.524 820.5 249C821.5 249.89 822.59 250.72 823.69 251.5C825.74 252.939 827.892 254.226 830.13 255.35C836.66 258.64 843.72 260.7 850.75 262.74L864.53 266.74C869.34 270.38 885.43 282.3 888.14 280.81C891.33 279.06 873.86 266.69 873.86 266.69L873.05 267.3C875.61 265.69 876.95 261.96 877.53 258.74C878.53 252.97 879.03 246.97 877.66 241.27C876.29 235.57 872.87 230.14 867.66 227.47C865.34 226.28 862.53 225.47 860.86 223.64C860.607 223.369 860.386 223.071 860.2 222.75C860.104 222.599 860.017 222.442 859.94 222.28C859.76 221.777 859.514 221.3 859.21 220.86C858.21 219.75 856.51 220.08 855.06 220.26L854.6 220.31C854.34 220.31 854.08 220.31 853.82 220.31C848.64 220.43 843.62 217.54 838.38 217.54C832.63 217.54 827.75 220.86 822.69 223.13C821.69 223.59 820.69 224.01 819.79 224.44C816.14 226.14 813.39 227.95 811.88 232.79C811.04 235.64 812.24 238.68 813.78 241.19Z" fill="#4CAF4F"/>
<path opacity="0.1" d="M853.85 220.34C853.569 220.823 853.469 221.39 853.568 221.939C853.667 222.489 853.958 222.986 854.39 223.34C855.031 223.795 855.786 224.065 856.57 224.12C857.131 224.193 857.695 224.237 858.26 224.25C859.027 224.307 859.797 224.173 860.5 223.86C860.639 223.792 860.77 223.708 860.89 223.61C860.637 223.339 860.416 223.041 860.23 222.72C860.1 222.82 859.97 222.8 859.45 222.72C858.504 222.671 857.568 222.51 856.66 222.24C856.176 222.12 855.734 221.87 855.382 221.518C855.03 221.166 854.78 220.724 854.66 220.24L853.85 220.34Z" fill="black"/>
<path opacity="0.1" d="M873.55 266.55C872.824 267.003 872.015 267.305 871.17 267.44C870.565 267.6 869.945 267.7 869.32 267.74C867.739 267.671 866.195 267.236 864.81 266.47L873.55 266.55Z" fill="black"/>
<path d="M440.39 372.07L440.91 371.93L442.26 374.82L453.39 398.82C452.908 399.423 452.468 400.058 452.07 400.72C451.93 400.95 451.79 401.18 451.66 401.45C451.53 401.72 451.39 401.99 451.27 402.27C451.22 402.359 451.18 402.453 451.15 402.55C451.12 402.61 451.13 402.61 451.07 402.75C451.01 402.89 450.96 403.04 450.91 403.18C450.834 403.281 450.794 403.375 450.712 403.468L450.7 403.51L450.65 403.63L450.54 404.024V404.06V404.2L450.48 404.5C450.48 404.509 450.479 404.517 450.479 404.526C450.479 404.531 450.48 404.535 450.48 404.54C450.479 404.545 450.479 404.549 450.478 404.554C450.479 404.563 450.479 404.571 450.48 404.58V404.59V404.62V404.63V404.67C450.485 404.696 450.485 404.724 450.48 404.75V404.83V404.89V405.02C450.453 405.353 450.453 405.687 450.48 406.02V406.27C449.92 406.11 449.3 405.52 448.8 404.06C448.637 403.58 448.553 403.077 448.55 402.57C448.454 399.444 451.091 396.145 451.507 395.624C451.526 395.6 451.541 395.582 451.55 395.57L441.75 374.92L440.39 372.07Z" fill="url(#paint22_linear)"/>
<path d="M453.05 409.39H453.11C453.296 409.316 453.469 409.211 453.62 409.08L453.595 409.12C453.603 409.113 453.612 409.107 453.62 409.1L453.47 409.34L453.38 409.48C453.331 409.553 453.287 409.63 453.25 409.71C453.158 409.853 453.079 410.003 452.997 410.16C452.982 410.19 452.966 410.22 452.95 410.25C452.761 410.629 452.617 411.028 452.52 411.44C452.518 411.45 452.517 411.46 452.517 411.47C452.517 411.48 452.518 411.49 452.52 411.5C452.52 411.502 452.519 411.503 452.519 411.505C452.519 411.507 452.52 411.508 452.52 411.51C452.52 411.512 452.519 411.513 452.519 411.515C452.519 411.517 452.52 411.518 452.52 411.52C452.517 411.54 452.516 411.561 452.518 411.582C452.518 411.588 452.519 411.594 452.52 411.6C452.523 411.607 452.525 411.613 452.526 411.621C452.527 411.624 452.527 411.627 452.527 411.63C452.527 411.64 452.524 411.651 452.52 411.66C452.269 411.287 451.946 410.967 451.57 410.72C451.27 410.542 451.026 410.284 450.866 409.975C450.705 409.666 450.634 409.318 450.66 408.97C450.669 408.571 450.743 408.175 450.88 407.8C451.049 408.22 451.293 408.607 451.6 408.94L451.75 409.08C451.871 409.186 452.01 409.271 452.16 409.33C452.218 409.354 452.279 409.375 452.34 409.39H452.44C452.64 409.441 452.85 409.441 453.05 409.39Z" fill="url(#paint23_linear)"/>
<path d="M491.51 752.33C491.51 752.33 506.51 754.17 513.74 751.67C520.97 749.17 511.5 762.42 501.67 765.56C494.72 767.585 487.559 768.8 480.33 769.18L468.77 758.31L456.5 759.25L458.64 771.25L454.83 771.61L453.35 755.87L491.51 752.33Z" fill="#444053"/>
<path opacity="0.1" d="M491.51 752.33C491.51 752.33 506.51 754.17 513.74 751.67C520.97 749.17 511.5 762.42 501.67 765.56C494.72 767.585 487.559 768.8 480.33 769.18L468.77 758.31L456.5 759.25L458.64 771.25L454.83 771.61L453.35 755.87L491.51 752.33Z" fill="black"/>
<path d="M513.12 779.81C513.12 779.81 531.07 783.74 540.12 781.53C549.17 779.32 536.19 794.32 523.89 797.02C511.59 799.72 497.57 799.02 497.57 799.02L484.84 784.47L469.84 784.22L471.07 799.07H466.4V779.81H513.12Z" fill="#444053"/>
<path opacity="0.1" d="M513.12 779.81C513.12 779.81 531.07 783.74 540.12 781.53C549.17 779.32 536.19 794.32 523.89 797.02C511.59 799.72 497.57 799.02 497.57 799.02L484.84 784.47L469.84 784.22L471.07 799.07H466.4V779.81H513.12Z" fill="black"/>
<path d="M446.72 438.22C446.72 438.22 415.98 472.4 434.42 511.01C434.42 511.01 435.42 517.9 434.67 519.13C433.92 520.36 437.62 536.34 437.62 536.34C437.62 536.34 438.12 565.34 437.62 570.28C437.12 575.22 436.62 577.9 436.62 577.9C436.62 577.9 429.75 631.47 431.96 647.47C434.17 663.47 435.16 691.98 435.16 691.98L444.26 768.71L491.48 759.86L470.08 654.6L469.34 635.91C469.34 635.91 478.2 613.04 474.26 601.48C470.32 589.92 475.26 442.61 475.26 442.61L446.72 438.22Z" fill="#434343"/>
<path d="M469.34 603.47C474.75 613.8 471.34 638.88 471.34 638.88C464.21 645.03 468.14 698.64 468.14 698.64C468.14 698.64 463.22 751.52 460.03 757.64C456.84 763.76 457.32 789.12 457.32 789.12C493.47 795.76 517.08 781.5 517.08 781.5C517.08 781.5 505.52 755.18 505.28 753.96C505.14 753.27 503.61 755.14 503.15 755.68C503.39 755.35 504.02 754.49 505.28 752.68C510.2 745.79 505.28 732.51 505.28 732.51C505.28 732.51 511.43 689.72 508.48 685.78C505.53 681.84 508.97 667.34 510.69 663.9C512.41 660.46 514.62 652.34 514.62 648.9C514.764 646.226 515.261 643.583 516.1 641.04C523.72 630.21 522.25 612.26 522.25 612.26C522.25 612.26 521.76 586.44 526.18 566.03C530.6 545.62 520.66 487.82 520.66 487.82C520.66 487.82 523.97 476.51 521.51 472.33C520.4 470.45 520.51 466.02 521.03 461.73C521.63 456.48 522.74 451.43 522.74 451.43L455.65 439.52C454.24 441.87 452.95 444.15 451.76 446.34C429.57 487.34 444.53 502.58 444.53 502.58L458.77 546.47C458.77 546.47 463.91 593.15 469.34 603.47Z" fill="#555555"/>
<path d="M575.83 282.54L585.42 290.68C585.42 290.68 587.3 289.18 589.82 286.93C595.82 281.51 605.54 271.7 601.9 267.54C596.9 261.86 591.9 265.54 591.59 265.8C592.13 265.23 603.26 253.3 598.7 254.26C594.14 255.22 585.42 265.58 585.42 265.58L578.53 277.75L575.83 282.54Z" fill="#EFB7B9"/>
<path d="M447.21 415.35L458.52 418.79L449.92 433.79L440.08 421L447.21 415.35Z" fill="#EFB7B9"/>
<path d="M473.77 274.43C491.565 274.43 505.99 260.005 505.99 242.21C505.99 224.415 491.565 209.99 473.77 209.99C455.975 209.99 441.55 224.415 441.55 242.21C441.55 260.005 455.975 274.43 473.77 274.43Z" fill="#EFB7B9"/>
<path d="M492.71 254.02C492.71 254.02 463.44 300.47 491.23 304.47C519.02 308.47 453.85 336.69 453.85 336.69L429.5 312.1C429.5 312.1 454.83 268.32 450.9 251.6C446.97 234.88 492.71 254.02 492.71 254.02Z" fill="#EFB7B9"/>
<path opacity="0.1" d="M451.73 446.41C458.23 448.381 464.855 449.914 471.56 451C471.56 451 507.8 467.09 521 461.8C521.6 456.55 522.71 451.5 522.71 451.5L455.62 439.59C454.21 441.94 452.91 444.22 451.73 446.41Z" fill="black"/>
<path d="M418.44 324.84L424.99 338.39L432.39 353.65L433.39 355.83L442.16 374.83L453.31 398.91C453.31 398.91 449.37 403.58 450.6 407.27C451.75 410.72 453.55 409.22 453.78 409.01C453.57 409.3 451.19 412.5 453.31 413.91C455.43 415.32 454.78 418.58 454.78 418.58C454.78 418.58 445.68 433.58 443.96 438.99C442.24 444.4 471.51 449.08 471.51 449.08C471.51 449.08 513.07 467.52 523.4 458.42C533.73 449.32 523.4 406.53 523.4 406.53C523.4 406.53 523.4 381.94 520.69 379.73C517.98 377.52 519.27 360.47 519.27 360.47C526.4 347.47 521.48 340.06 521.48 340.06L523.48 306.62C523.48 306.62 520.28 303.17 517.82 302.93C516.267 302.782 514.703 302.782 513.15 302.93C513.15 302.93 511.85 302.49 509.98 301.93C506.04 300.81 499.5 299.26 497.16 300.43C493.72 302.15 471.59 297.72 471.59 297.72C462.052 296.308 452.445 295.407 442.81 295.02C439.52 294.806 436.217 295.164 433.05 296.08C425.05 298.55 423.63 304.36 423.63 304.36C423.63 304.36 424.63 309.28 420.68 315.67C416.73 322.06 418.44 324.84 418.44 324.84Z" fill="#4CAF4F"/>
<path opacity="0.1" d="M575.83 282.54L585.42 290.68C585.42 290.68 587.3 289.18 589.82 286.93C590.58 278.63 583.51 277.53 578.53 277.75L575.83 282.54Z" fill="black"/>
<path d="M519.27 306.4L523.45 306.65C523.45 306.65 533.28 307.87 536.45 304.92C539.62 301.97 550.96 300.99 550.96 300.99C550.96 300.99 554.16 294.59 557.6 292.63C561.04 290.67 569.41 286.97 569.6 285C569.79 283.03 572.8 279.35 572.8 279.35C572.8 279.35 591.24 274.92 588.54 289.43C585.84 303.94 570.91 316.47 570.91 316.47C570.91 316.47 569.19 324.59 563.53 326.56C557.87 328.53 521.23 345.74 515.33 341.31C509.43 336.88 519.27 306.4 519.27 306.4Z" fill="#4CAF4F"/>
<path opacity="0.1" d="M420.65 315.66C424.58 309.27 423.6 304.35 423.6 304.35C423.6 304.35 425.02 298.54 433.02 296.07C434.581 295.597 436.186 295.282 437.81 295.13C429.93 297.63 428.52 303.37 428.52 303.37C428.52 303.37 429.52 308.29 425.57 314.68C421.62 321.07 423.35 323.78 423.35 323.78L429.91 337.33L437.3 352.58L438.36 354.77L447.13 373.72L458.28 397.8C458.28 397.8 454.34 402.48 455.57 406.17C456.72 409.62 458.52 408.11 458.75 407.91C458.54 408.19 456.16 411.4 458.28 412.81C460.4 414.22 459.75 417.48 459.75 417.48C459.75 417.48 450.65 432.48 448.93 437.89C447.21 443.3 476.48 447.97 476.48 447.97C476.48 447.97 505.34 460.78 520.94 459.78C507.68 464.98 471.56 448.96 471.56 448.96C471.56 448.96 442.29 444.28 444.01 438.87C445.73 433.46 454.83 418.47 454.83 418.47C454.83 418.47 455.57 415.27 453.36 413.8C451.15 412.33 453.62 409.19 453.83 408.9C453.6 409.11 451.83 410.61 450.65 407.16C449.42 403.47 453.36 398.8 453.36 398.8L442.21 374.71L433.44 355.71L432.44 353.53L425.04 338.27L418.49 324.72C418.49 324.72 416.71 322.06 420.65 315.66Z" fill="black"/>
<path d="M422.91 321.15L418.49 324.84C417.689 327.266 416.437 329.518 414.8 331.48C412.34 334.19 405.7 360.99 405.7 360.99C405.98 361.609 406.125 362.281 406.125 362.96C406.125 363.639 405.98 364.311 405.7 364.93C404.7 366.93 407.7 369.85 407.7 369.85C407.7 369.85 409.17 369.36 406.7 372.06C404.23 374.76 408.92 377.98 408.92 377.98C408.92 377.98 429.08 412.39 433.26 416.08C437.44 419.77 441.62 429.36 441.62 429.36C441.62 429.36 450.38 415.62 452.44 415.36L443.84 395.94C443.84 395.94 437.93 368.88 433.51 363.94C429.09 359 435.72 342.04 435.72 342.04L422.91 321.15Z" fill="#4CAF4F"/>
<path opacity="0.1" d="M420.03 371.32C423.73 375.76 430.22 376.7 435.96 376.05C436.8 375.95 437.65 375.82 438.48 375.66C439.738 375.435 440.983 375.145 442.21 374.79C446.604 373.524 450.741 371.493 454.43 368.79C455.235 368.095 456.165 367.558 457.17 367.21C459.47 366.63 461.75 368.34 463 370.34C464.25 372.34 464.84 374.7 466.12 376.68C468.64 380.61 473.52 382.5 478.2 382.61C482.88 382.72 487.42 381.32 491.88 379.93C488.27 375.49 484.57 370.87 483.1 365.34C482.283 361.734 482.05 358.02 482.41 354.34C483.47 336.94 489.51 318.6 503.7 308.46C506.16 306.71 509.13 304.64 509.95 301.98C506.01 300.86 499.47 299.31 497.13 300.48C493.69 302.2 471.56 297.77 471.56 297.77C462.022 296.358 452.415 295.457 442.78 295.07C439.49 294.856 436.187 295.214 433.02 296.13C434.23 303.52 435.28 310.87 433.83 318.13C432.824 322.654 431.184 327.014 428.96 331.08C427.7 333.53 426.34 335.94 424.96 338.36C421.22 345.09 417.65 351.84 416.96 359.36C416.67 363.61 417.35 368.1 420.03 371.32Z" fill="black"/>
<path opacity="0.1" d="M468.66 405.92C466.74 405.67 464.8 405.02 462.9 405.42C461.284 405.902 459.807 406.762 458.59 407.93L471.23 408C474.48 408 479.38 408.2 481.87 405.9C479.59 403.64 471.91 406.34 468.66 405.92Z" fill="black"/>
<path d="M512.47 238.47C514.388 241.112 515.597 244.202 515.98 247.444C516.364 250.687 515.909 253.973 514.66 256.99C512.66 261.74 508.73 265.46 506.34 270.04C504.531 273.594 503.656 277.549 503.796 281.533C503.936 285.518 505.087 289.402 507.14 292.82C508.073 294.036 508.753 295.427 509.14 296.91C509.71 300.66 505.83 303.35 502.74 305.56C488.54 315.68 482.51 334.03 481.45 351.44C481.086 355.119 481.315 358.833 482.13 362.44C483.6 367.97 487.31 372.59 490.92 377.03C486.46 378.42 481.92 379.82 477.23 379.71C472.54 379.6 467.68 377.71 465.15 373.78C463.87 371.78 463.27 369.44 462.03 367.44C460.79 365.44 458.5 363.74 456.22 364.31C455.209 364.648 454.275 365.181 453.47 365.88C448.043 369.861 441.675 372.366 434.99 373.15C429.25 373.81 422.76 372.86 419.07 368.42C416.39 365.19 415.7 360.71 416.07 356.53C417.35 341.64 429.96 329.93 432.88 315.27C435.24 303.39 430.96 291.27 430.18 279.21C429.01 261.34 435.5 243.95 441.89 227.21C443.282 223.062 445.161 219.094 447.49 215.39C452.84 207.55 462.09 202.85 471.49 201.91C474.977 201.426 478.529 201.769 481.86 202.91C485.22 204.21 488.02 206.63 490.75 209C496.85 214.29 503.12 219.8 506.63 227.08C508.06 230.08 509 233.25 510.63 236.14L512.47 238.47Z" fill="#434343"/>
<g opacity="0.1">
<path opacity="0.1" d="M506.67 231.94C505.07 229.05 504.14 225.85 502.67 222.88C501.304 220.11 499.59 217.526 497.57 215.19C501.237 218.601 504.282 222.625 506.57 227.08C507.96 229.96 508.89 233.08 510.4 235.89L508.46 234.25C508.968 234.924 509.422 235.636 509.82 236.38C508.59 235.036 507.532 233.545 506.67 231.94V231.94Z" fill="black"/>
<path opacity="0.1" d="M431.03 368.89C437.716 368.116 444.085 365.614 449.51 361.63C450.318 360.935 451.251 360.402 452.26 360.06C454.55 359.48 456.83 361.19 458.08 363.19C458.34 363.61 458.57 364.06 458.79 364.51C457.979 364.14 457.067 364.052 456.2 364.26C455.189 364.598 454.255 365.131 453.45 365.83C448.023 369.811 441.655 372.316 434.97 373.1C429.23 373.76 422.74 372.81 419.05 368.37C418.59 367.797 418.182 367.185 417.83 366.54C421.55 368.93 426.52 369.41 431.03 368.89Z" fill="black"/>
<path opacity="0.1" d="M473.28 375.47C477.95 375.58 482.5 374.18 486.96 372.79C483.35 368.35 479.65 363.73 478.18 358.2C477.362 354.594 477.129 350.88 477.49 347.2C478.55 329.79 484.59 311.44 498.79 301.32C501.88 299.11 505.79 296.42 505.19 292.66C504.796 291.182 504.117 289.796 503.19 288.58C501.135 285.163 499.983 281.28 499.841 277.295C499.699 273.31 500.573 269.354 502.38 265.8C504.78 261.22 508.68 257.5 510.71 252.74C511.791 250.118 512.277 247.288 512.131 244.456C511.986 241.623 511.214 238.858 509.87 236.36C510.546 237.072 511.268 237.74 512.03 238.36C512.576 239.124 513.171 239.852 513.81 240.54C515.154 243.04 515.926 245.807 516.07 248.642C516.213 251.476 515.725 254.307 514.64 256.93C512.64 261.68 508.71 265.4 506.32 269.98C504.511 273.534 503.636 277.489 503.776 281.473C503.916 285.458 505.067 289.342 507.12 292.76C508.053 293.976 508.733 295.367 509.12 296.85C509.69 300.6 505.81 303.29 502.72 305.5C488.52 315.62 482.49 333.97 481.43 351.38C481.066 355.059 481.295 358.773 482.11 362.38C483.58 367.91 487.29 372.53 490.9 376.97C486.44 378.36 481.9 379.76 477.21 379.65C472.52 379.54 467.66 377.65 465.13 373.72C464.96 373.46 464.81 373.19 464.66 372.92C467.248 374.539 470.228 375.42 473.28 375.47V375.47Z" fill="black"/>
</g>
<path d="M325.28 148.04V169.04H234.1C236.88 165.187 239.72 161.387 242.62 157.64C243.02 157.12 243.42 156.64 243.84 156.09L248.11 150.72L248.7 149.99L250.25 148.1L325.28 148.04Z" fill="#A5D6A7"/>
<path d="M513.94 148.04H418.13V169.02H513.94V148.04Z" fill="#A5D6A7"/>
<path d="M733.99 148.04H638.18V169.02H733.99V148.04Z" fill="#A5D6A7"/>
<path d="M920.1 148.04H824.29V169.02H920.1V148.04Z" fill="#A5D6A7"/>
</g>
<defs>
<linearGradient id="paint0_linear" x1="221.34" y1="260.73" x2="221.34" y2="216.07" gradientUnits="userSpaceOnUse">
<stop stop-color="#808080" stop-opacity="0.25"/>
<stop offset="0.54" stop-color="#808080" stop-opacity="0.12"/>
<stop offset="1" stop-color="#808080" stop-opacity="0.1"/>
</linearGradient>
<linearGradient id="paint1_linear" x1="19213" y1="11239.3" x2="19213" y2="9244.32" gradientUnits="userSpaceOnUse">
<stop stop-color="#808080" stop-opacity="0.25"/>
<stop offset="0.54" stop-color="#808080" stop-opacity="0.12"/>
<stop offset="1" stop-color="#808080" stop-opacity="0.1"/>
</linearGradient>
<linearGradient id="paint2_linear" x1="29032.6" y1="15198.5" x2="29032.6" y2="13203.5" gradientUnits="userSpaceOnUse">
<stop stop-color="#808080" stop-opacity="0.25"/>
<stop offset="0.54" stop-color="#808080" stop-opacity="0.12"/>
<stop offset="1" stop-color="#808080" stop-opacity="0.1"/>
</linearGradient>
<linearGradient id="paint3_linear" x1="39051.9" y1="16548.6" x2="39051.9" y2="14554.1" gradientUnits="userSpaceOnUse">
<stop stop-color="#808080" stop-opacity="0.25"/>
<stop offset="0.54" stop-color="#808080" stop-opacity="0.12"/>
<stop offset="1" stop-color="#808080" stop-opacity="0.1"/>
</linearGradient>
<linearGradient id="paint4_linear" x1="41736.9" y1="17868.7" x2="41736.9" y2="15874.2" gradientUnits="userSpaceOnUse">
<stop stop-color="#808080" stop-opacity="0.25"/>
<stop offset="0.54" stop-color="#808080" stop-opacity="0.12"/>
<stop offset="1" stop-color="#808080" stop-opacity="0.1"/>
</linearGradient>
<linearGradient id="paint5_linear" x1="45103.4" y1="14341.9" x2="45103.4" y2="12346.9" gradientUnits="userSpaceOnUse">
<stop stop-color="#808080" stop-opacity="0.25"/>
<stop offset="0.54" stop-color="#808080" stop-opacity="0.12"/>
<stop offset="1" stop-color="#808080" stop-opacity="0.1"/>
</linearGradient>
<linearGradient id="paint6_linear" x1="44421.9" y1="17202.5" x2="44421.9" y2="15208" gradientUnits="userSpaceOnUse">
<stop stop-color="#808080" stop-opacity="0.25"/>
<stop offset="0.54" stop-color="#808080" stop-opacity="0.12"/>
<stop offset="1" stop-color="#808080" stop-opacity="0.1"/>
</linearGradient>
<linearGradient id="paint7_linear" x1="22178.9" y1="11239.3" x2="22178.9" y2="9244.32" gradientUnits="userSpaceOnUse">
<stop stop-color="#808080" stop-opacity="0.25"/>
<stop offset="0.54" stop-color="#808080" stop-opacity="0.12"/>
<stop offset="1" stop-color="#808080" stop-opacity="0.1"/>
</linearGradient>
<linearGradient id="paint8_linear" x1="12020.1" y1="16182.9" x2="12020.1" y2="14187.9" gradientUnits="userSpaceOnUse">
<stop stop-color="#808080" stop-opacity="0.25"/>
<stop offset="0.54" stop-color="#808080" stop-opacity="0.12"/>
<stop offset="1" stop-color="#808080" stop-opacity="0.1"/>
</linearGradient>
<linearGradient id="paint9_linear" x1="20782" y1="14178.4" x2="20782" y2="12183.9" gradientUnits="userSpaceOnUse">
<stop stop-color="#808080" stop-opacity="0.25"/>
<stop offset="0.54" stop-color="#808080" stop-opacity="0.12"/>
<stop offset="1" stop-color="#808080" stop-opacity="0.1"/>
</linearGradient>
<linearGradient id="paint10_linear" x1="32113.5" y1="12959.8" x2="32113.5" y2="10965.2" gradientUnits="userSpaceOnUse">
<stop stop-color="#808080" stop-opacity="0.25"/>
<stop offset="0.54" stop-color="#808080" stop-opacity="0.12"/>
<stop offset="1" stop-color="#808080" stop-opacity="0.1"/>
</linearGradient>
<linearGradient id="paint11_linear" x1="43584.9" y1="11529.7" x2="43584.9" y2="9535.18" gradientUnits="userSpaceOnUse">
<stop stop-color="#808080" stop-opacity="0.25"/>
<stop offset="0.54" stop-color="#808080" stop-opacity="0.12"/>
<stop offset="1" stop-color="#808080" stop-opacity="0.1"/>
</linearGradient>
<linearGradient id="paint12_linear" x1="34981.8" y1="11239.3" x2="34981.8" y2="9244.32" gradientUnits="userSpaceOnUse">
<stop stop-color="#808080" stop-opacity="0.25"/>
<stop offset="0.54" stop-color="#808080" stop-opacity="0.12"/>
<stop offset="1" stop-color="#808080" stop-opacity="0.1"/>
</linearGradient>
<linearGradient id="paint13_linear" x1="34858.8" y1="15198.5" x2="34858.8" y2="13203.5" gradientUnits="userSpaceOnUse">
<stop stop-color="#808080" stop-opacity="0.25"/>
<stop offset="0.54" stop-color="#808080" stop-opacity="0.12"/>
<stop offset="1" stop-color="#808080" stop-opacity="0.1"/>
</linearGradient>
<linearGradient id="paint14_linear" x1="25098.2" y1="12223.7" x2="25098.2" y2="10229.2" gradientUnits="userSpaceOnUse">
<stop stop-color="#808080" stop-opacity="0.25"/>
<stop offset="0.54" stop-color="#808080" stop-opacity="0.12"/>
<stop offset="1" stop-color="#808080" stop-opacity="0.1"/>
</linearGradient>
<linearGradient id="paint15_linear" x1="13546.6" y1="12879.9" x2="13546.6" y2="10885.3" gradientUnits="userSpaceOnUse">
<stop stop-color="#808080" stop-opacity="0.25"/>
<stop offset="0.54" stop-color="#808080" stop-opacity="0.12"/>
<stop offset="1" stop-color="#808080" stop-opacity="0.1"/>
</linearGradient>
<linearGradient id="paint16_linear" x1="14633.4" y1="15198.5" x2="14633.4" y2="13203.5" gradientUnits="userSpaceOnUse">
<stop stop-color="#808080" stop-opacity="0.25"/>
<stop offset="0.54" stop-color="#808080" stop-opacity="0.12"/>
<stop offset="1" stop-color="#808080" stop-opacity="0.1"/>
</linearGradient>
<linearGradient id="paint17_linear" x1="23651.3" y1="15529" x2="23651.3" y2="13534.5" gradientUnits="userSpaceOnUse">
<stop stop-color="#808080" stop-opacity="0.25"/>
<stop offset="0.54" stop-color="#808080" stop-opacity="0.12"/>
<stop offset="1" stop-color="#808080" stop-opacity="0.1"/>
</linearGradient>
<linearGradient id="paint18_linear" x1="39562.8" y1="11529.7" x2="39562.8" y2="9535.18" gradientUnits="userSpaceOnUse">
<stop stop-color="#808080" stop-opacity="0.25"/>
<stop offset="0.54" stop-color="#808080" stop-opacity="0.12"/>
<stop offset="1" stop-color="#808080" stop-opacity="0.1"/>
</linearGradient>
<linearGradient id="paint19_linear" x1="41486.7" y1="14341.9" x2="41486.7" y2="12346.9" gradientUnits="userSpaceOnUse">
<stop stop-color="#808080" stop-opacity="0.25"/>
<stop offset="0.54" stop-color="#808080" stop-opacity="0.12"/>
<stop offset="1" stop-color="#808080" stop-opacity="0.1"/>
</linearGradient>
<linearGradient id="paint20_linear" x1="29222.5" y1="11239.3" x2="29222.5" y2="9244.32" gradientUnits="userSpaceOnUse">
<stop stop-color="#808080" stop-opacity="0.25"/>
<stop offset="0.54" stop-color="#808080" stop-opacity="0.12"/>
<stop offset="1" stop-color="#808080" stop-opacity="0.1"/>
</linearGradient>
<linearGradient id="paint21_linear" x1="31867.4" y1="17202.5" x2="31867.4" y2="15208" gradientUnits="userSpaceOnUse">
<stop stop-color="#808080" stop-opacity="0.25"/>
<stop offset="0.54" stop-color="#808080" stop-opacity="0.12"/>
<stop offset="1" stop-color="#808080" stop-opacity="0.1"/>
</linearGradient>
<linearGradient id="paint22_linear" x1="-97157.8" y1="499233" x2="-97157.8" y2="137469" gradientUnits="userSpaceOnUse">
<stop stop-color="#808080" stop-opacity="0.25"/>
<stop offset="0.54" stop-color="#808080" stop-opacity="0.12"/>
<stop offset="1" stop-color="#808080" stop-opacity="0.1"/>
</linearGradient>
<linearGradient id="paint23_linear" x1="-97157.8" y1="499233" x2="-97157.8" y2="137469" gradientUnits="userSpaceOnUse">
<stop stop-color="#808080" stop-opacity="0.25"/>
<stop offset="0.54" stop-color="#808080" stop-opacity="0.12"/>
<stop offset="1" stop-color="#808080" stop-opacity="0.1"/>
</linearGradient>
<clipPath id="clip0">
<rect width="1177.82" height="836.94" fill="white"/>
</clipPath>
</defs>
</svg>
